<svg aria-hidden="true" xmlns="http://www.w3.org/2000/svg">
    <defs>
        <symbol id="logo" viewBox="0 0 256 99">
            <g clip-path="url(#a)">
                <mask id="b" style="mask-type:luminance" maskUnits="userSpaceOnUse" x="0" y="-71" width="255"
                    height="256">
                    <path d="M254.893-70.5H0v254.893h254.893V-70.5Z" fill="#fff" />
                </mask>
                <g mask="url(#b)">
                    <path
                        d="M21.386 70.586a.551.551 0 0 1-.336-.1c-.086-.064-.136-.171-.136-.321V60.072c0-.143.043-.25.136-.322.085-.071.2-.1.335-.1h2.443c.258 0 .393.122.393.372v2.986c0 .135.072.2.207.2h11.265c.3 0 .45.107.45.321v3.207c0 .2-.136.3-.407.3h-11.23c-.192 0-.285.064-.285.186v2.971c0 .257-.128.386-.393.386h-2.442v.007Z"
                        fill="#fff" stroke="#171044" stroke-width=".714" stroke-miterlimit="10" />
                </g>
                <mask id="c" style="mask-type:luminance" maskUnits="userSpaceOnUse" x="0" y="-71" width="255"
                    height="256">
                    <path d="M254.893-70.5H0v254.893h254.893V-70.5Z" fill="#fff" />
                </mask>
                <g mask="url(#c)">
                    <path
                        d="M30.043 53.357c0 .179.1.272.307.272h5.193c.4 0 .593.185.593.557V57c0 .178-.043.3-.122.364-.079.065-.214.093-.393.093H21.385c-.314 0-.47-.107-.47-.321v-3.208c0-.2.142-.307.428-.307H26.1c.271 0 .414-.1.414-.307v-2.836c0-.2-.136-.3-.414-.3h-4.757c-.286 0-.429-.1-.429-.307v-3.207c0-.214.157-.321.471-.321h14.236c.179 0 .307.028.393.093.086.064.121.185.121.364v2.814c0 .372-.2.557-.592.557H30.35c-.207 0-.307.093-.307.272v2.914Z"
                        fill="#fff" stroke="#171044" stroke-width=".714" stroke-miterlimit="10" />
                </g>
                <mask id="d" style="mask-type:luminance" maskUnits="userSpaceOnUse" x="0" y="-71" width="255"
                    height="256">
                    <path d="M254.893-70.5H0v254.893h254.893V-70.5Z" fill="#fff" />
                </mask>
                <g mask="url(#d)">
                    <path
                        d="M20.914 43.436v-9.108c0-.2.143-.307.429-.307l2.378.015c.372 0 .557.15.557.435v5.065c0 .257.129.385.393.385h1.743c.286 0 .429-.1.429-.307V36.58c0-.236.135-.358.407-.358h2.543c.093 0 .178.022.242.072.072.043.1.121.1.236v3.121c0 .178.093.271.286.271h2.05c.193 0 .286-.071.286-.2v-5.485c0-.25.129-.372.393-.372h2.521c.122 0 .229.029.315.093.085.064.135.164.135.314V43.3c0 .307-.171.457-.514.457H21.386c-.315 0-.472-.107-.472-.321Z"
                        fill="#fff" stroke="#171044" stroke-width=".714" stroke-miterlimit="10" />
                </g>
                <mask id="e" style="mask-type:luminance" maskUnits="userSpaceOnUse" x="0" y="-71" width="255"
                    height="256">
                    <path d="M254.893-70.5H0v254.893h254.893V-70.5Z" fill="#fff" />
                </mask>
                <g mask="url(#e)">
                    <path
                        d="M42.428 71.436a1.09 1.09 0 0 1-.335-.8V34.943c0-.378.121-.693.357-.95.243-.257.55-.386.928-.386h15.33c5.313 0 9.356.85 12.135 2.543 2.778 1.7 4.164 4.207 4.164 7.536 0 1.786-.479 3.3-1.443 4.55-.957 1.25-2.728 2.479-5.3 3.679-.071.035-.1.092-.1.178s.036.143.1.179c2.843 1.064 4.836 2.3 5.965 3.7 1.128 1.407 1.7 3.207 1.7 5.4 0 3.528-1.343 6.143-4.036 7.843-2.693 1.7-6.814 2.542-12.372 2.542H43.28c-.343.015-.63-.092-.85-.321Zm17.1-22.907c.615 0 1.165-.086 1.643-.257a3.527 3.527 0 0 0 1.236-.743c.343-.329.607-.693.8-1.107.186-.415.286-.872.286-1.386 0-1.129-.422-2.029-1.257-2.7-.843-.671-1.857-1-3.057-1h-4.215c-.785 0-1.185.343-1.185 1.029v5.042c0 .758.292 1.129.87 1.129h4.88v-.007Zm-.257 15.528c1.508 0 2.643-.414 3.393-1.235.757-.822 1.129-1.729 1.129-2.729 0-.721-.179-1.357-.543-1.9-.357-.55-.857-.978-1.493-1.286-.636-.307-1.378-.464-2.236-.464h-4.578c-.786 0-1.186.357-1.186 1.079v5.4c0 .757.293 1.128.872 1.128h4.642v.007Z"
                        fill="#171044" />
                </g>
                <mask id="f" style="mask-type:luminance" maskUnits="userSpaceOnUse" x="0" y="-71" width="255"
                    height="256">
                    <path d="M254.893-70.5H0v254.893h254.893V-70.5Z" fill="#fff" />
                </mask>
                <g mask="url(#f)">
                    <path
                        d="M89.772 69.892c-2.779-1.592-4.922-3.857-6.429-6.785-1.507-2.929-2.264-6.372-2.264-10.315 0-3.978.772-7.442 2.314-10.385 1.543-2.95 3.7-5.236 6.479-6.864 2.778-1.63 6.014-2.443 9.721-2.443 3.7 0 6.936.814 9.693 2.442 2.757 1.629 4.9 3.915 6.429 6.865 1.528 2.95 2.286 6.414 2.286 10.386 0 3.942-.758 7.37-2.265 10.285-1.507 2.915-3.643 5.179-6.4 6.786-2.757 1.614-6.007 2.414-9.743 2.414-3.771.007-7.043-.793-9.821-2.386Zm14.579-8.2c.942-1.714 1.414-4.628 1.414-8.742 0-4.25-.479-7.3-1.443-9.158-.957-1.85-2.536-2.778-4.729-2.778-2.228 0-3.828.928-4.807 2.778-.978 1.85-1.464 4.908-1.464 9.158 0 4.114.471 7.028 1.414 8.742.943 1.715 2.564 2.572 4.857 2.572 2.229 0 3.815-.857 4.758-2.571Z"
                        fill="#171044" />
                </g>
                <mask id="g" style="mask-type:luminance" maskUnits="userSpaceOnUse" x="0" y="-71" width="255"
                    height="256">
                    <path d="M254.893-70.5H0v254.893h254.893V-70.5Z" fill="#fff" />
                </mask>
                <g mask="url(#g)">
                    <path
                        d="M120.986 71.229c-.172-.357-.157-.814.05-1.364l12.443-35.072c.171-.414.357-.714.564-.9.207-.186.528-.286.978-.286h10.136c.893 0 1.507.465 1.85 1.386l12.343 35.022c.136.342.143.721.029 1.128-.115.407-.372.614-.743.614h-10.079c-.586 0-.964-.292-1.128-.871l-2.008-5.914a2.21 2.21 0 0 0-.228-.436c-.086-.121-.264-.179-.543-.179h-10.9c-.414 0-.671.186-.771.565l-2.108 6.071c-.071.207-.2.386-.385.543-.186.157-.472.229-.85.229h-7.815c-.385.007-.664-.172-.835-.536Zm21.085-15.607c.515 0 .672-.343.465-1.029L139.45 45.8c-.071-.171-.171-.257-.307-.257-.136 0-.243.086-.307.257l-3.136 8.743c-.271.722-.1 1.079.514 1.079h5.857Z"
                        fill="#171044" />
                </g>
                <mask id="h" style="mask-type:luminance" maskUnits="userSpaceOnUse" x="0" y="-71" width="255"
                    height="256">
                    <path d="M254.893-70.5H0v254.893h254.893V-70.5Z" fill="#fff" />
                </mask>
                <g mask="url(#h)">
                    <path
                        d="M158.529 34.793c0-.343.1-.628.307-.85.207-.221.529-.336.979-.336h30.75c.442 0 .771.115.978.336.207.222.307.507.307.85v6.122c0 .65-.378.978-1.128.978h-9.1c-.415 0-.615.172-.615.514v28.236c0 .757-.328 1.129-.978 1.129h-9.772c-.614 0-.928-.343-.928-1.029V42.615c0-.479-.186-.722-.564-.722h-9.05c-.786 0-1.179-.328-1.179-.978v-6.122h-.007Z"
                        fill="#171044" />
                </g>
                <mask id="i" style="mask-type:luminance" maskUnits="userSpaceOnUse" x="0" y="-71" width="255"
                    height="256">
                    <path d="M254.893-70.5H0v254.893h254.893V-70.5Z" fill="#fff" />
                </mask>
                <g mask="url(#i)">
                    <path
                        d="M217.421 41.943c-.928-.586-2.4-.872-4.421-.872-1.921 0-3.271.279-4.064.822-.793.55-1.186 1.15-1.186 1.8 0 .307.093.628.286.95.185.328.521.636 1 .928.478.293 1.15.543 2.007.743l8.536 2.215c3.221.785 5.6 2.192 7.121 4.214 1.529 2.021 2.286 4.357 2.286 6.993 0 2.535-.672 4.75-2.007 6.635-1.336 1.886-3.236 3.343-5.686 4.372-2.45 1.028-5.372 1.543-8.772 1.543-2.5 0-4.878-.286-7.121-.85-2.243-.565-4.207-1.365-5.886-2.393-1.678-1.029-2.928-2.215-3.757-3.55-.207-.379-.293-.686-.257-.929.036-.243.221-.5.564-.771l5.3-3.65c.479-.307.872-.436 1.179-.386.307.05.564.214.771.486.757.957 1.507 1.75 2.265 2.364a7.086 7.086 0 0 0 2.6 1.336c.978.271 2.135.414 3.471.414 1.886 0 3.393-.257 4.529-.771 1.128-.515 1.7-1.25 1.7-2.215 0-.414-.122-.8-.358-1.157-.242-.357-.592-.678-1.057-.95-.464-.271-1.071-.5-1.828-.671l-7.815-1.9c-2.057-.514-3.842-1.329-5.35-2.443-1.507-1.114-2.671-2.443-3.5-3.986a10.462 10.462 0 0 1-1.235-4.986c0-2.228.643-4.27 1.928-6.12 1.286-1.85 3.122-3.33 5.5-4.422 2.386-1.1 5.186-1.643 8.407-1.643 2.058 0 4.022.228 5.886.693 1.872.464 3.543 1.107 5.014 1.928 1.472.822 2.608 1.8 3.393 2.929.172.243.3.486.386.743.086.257-.043.521-.386.8l-5.607 4.064c-.243.171-.464.228-.664.178-.207-.05-.5-.25-.872-.592-.607-.679-1.378-1.307-2.3-1.893Z"
                        fill="#171044" />
                </g>
                <mask id="j" style="mask-type:luminance" maskUnits="userSpaceOnUse" x="0" y="-71" width="255"
                    height="256">
                    <path d="M254.893-70.5H0v254.893h254.893V-70.5Z" fill="#fff" />
                </mask>
                <g mask="url(#j)">
                    <path
                        d="M241.614 62.828c-1.293.872-2.557 1.793-3.885 2.614-8.393 5.186-17.686 8.022-27.365 9.858-16.578 3.142-33.343 3.464-50.128 3.014-11.972-.322-23.936-.957-35.893-1.6-14.414-.772-28.815-1.893-43.243-2.514-18.314-.793-36.65-1.079-54.879 1.564-2.428.35-4.828.857-7.357 1.05.772-.35 1.522-.729 2.307-1.036 14.736-5.814 30.165-8.321 45.95-9.107 16.015-.8 31.979.164 47.943 1.214 19.536 1.293 39.065 2.872 58.629 3.422 22.636.635 45.057-1.486 66.686-8.722.314-.107.671-.085 1.014-.121.071.114.15.243.221.364Z"
                        fill="#FBAA19" />
                </g>
            </g>
            <defs>
                <clipPath id="a">
                    <path fill="#fff" transform="translate(0 .929)" d="M0 0h255.238v97.143H0z" />
                </clipPath>
            </defs>
        </symbol>


        <symbol id="share" viewBox="0 0 37 37">
            <path
                d="M.238 18.5c0-9.942 8.06-18 18-18 9.941 0 18 8.058 18 18 0 9.941-8.059 18-18 18-9.94 0-18-8.059-18-18Z" />
            <path
                d="M10.867 22.468a3.904 3.904 0 1 0 0-7.808 3.904 3.904 0 0 0 0 7.808ZM22.785 15.528a3.904 3.904 0 1 0 0-7.808 3.904 3.904 0 0 0 0 7.808ZM22.785 29.28a3.904 3.904 0 1 0 0-7.808 3.904 3.904 0 0 0 0 7.808Z"
                fill="#fff" />
            <path d="m11.396 19.339-1.056-1.814 11.918-6.94 1.056 1.814-11.918 6.94Z" fill="#fff" />
            <path d="m22.257 26.28-11.918-6.94 1.056-1.814 11.918 6.94-1.056 1.813Z" fill="#fff" />
        </symbol>



        <symbol id="instagram" viewBox="0 0 37 37">
            <path d="M18.238 12.194a6.306 6.306 0 1 0 0 12.612 6.306 6.306 0 0 0 0-12.613Z" />
            <path fill-rule="evenodd" clip-rule="evenodd"
                d="M1.238 17.952c0-6.855 0-10.282 1.746-12.684a9.14 9.14 0 0 1 2.022-2.022C7.408 1.5 10.836 1.5 17.69 1.5h1.097c6.854 0 10.281 0 12.684 1.746a9.14 9.14 0 0 1 2.022 2.022c1.745 2.402 1.745 5.83 1.745 12.684v1.096c0 6.855 0 10.282-1.745 12.684a9.14 9.14 0 0 1-2.022 2.023C29.068 35.5 25.64 35.5 18.787 35.5H17.69c-6.855 0-10.282 0-12.684-1.745a9.14 9.14 0 0 1-2.022-2.023c-1.746-2.402-1.746-5.83-1.746-12.684v-1.096Zm7.586.548a9.414 9.414 0 1 1 18.828 0 9.414 9.414 0 0 1-18.828 0Zm19.4-12.065a2.125 2.125 0 1 0 0 4.25 2.125 2.125 0 0 0 0-4.25Z" />
        </symbol>



        <symbol id="youtobe" viewBox="0 0 37 37">
            <g clip-path="url(#a)">
                <path d="m15.742 21.404 4.993-2.896-4.993-2.911v5.807Z" />
                <path
                    d="M18.238.5a18 18 0 1 0 0 36 18 18 0 0 0 0-36Zm9.474 21.186a3.585 3.585 0 0 1-3.583 3.585H12.348a3.584 3.584 0 0 1-3.583-3.585v-6.371a3.584 3.584 0 0 1 3.583-3.586h11.78a3.584 3.584 0 0 1 3.584 3.586v6.37Z" />
            </g>
            <defs>
                <clipPath id="a">
                    <path fill="#fff" transform="translate(.238 .5)" d="M0 0h36v36H0z" />
                </clipPath>
            </defs>
        </symbol>



        <symbol id="facebook" viewBox="0 0 37 37">
            <path
                d="M36.238 18.61c0-10.002-8.06-18.11-18-18.11s-18 8.108-18 18.11c0 9.039 6.582 16.53 15.188 17.889V23.843h-4.57v-5.236h4.57V14.62c0-4.538 2.688-7.046 6.8-7.046 1.967 0 4.028.354 4.028.354v4.457h-2.27c-2.237 0-2.935 1.396-2.935 2.828v3.395h4.992l-.798 5.237H21.05V36.5c8.607-1.36 15.19-8.852 15.19-17.89Z" />
        </symbol>

        <symbol id="icon-arrow-right" viewBox="0 0 24 24">
            <path
                d="M11.293 5.707 16.586 11H5a1 1 0 0 0 0 2h11.586l-5.293 5.293a.999.999 0 1 0 1.414 1.414l7-7a1.006 1.006 0 0 0 0-1.414l-7-7a.999.999 0 1 0-1.414 1.414z" />
        </symbol>
        <symbol id="icon-arrow-left" viewBox="0 0 24 24">
            <path
                d="M12.707 18.293 7.414 13H19a1 1 0 0 0 0-2H7.414l5.293-5.293a.999.999 0 1 0-1.414-1.414l-7 7a.998.998 0 0 0 0 1.414l7 7a.999.999 0 1 0 1.414-1.414z" />
        </symbol>



        <symbol id="logo-footer" viewBox="0 0 128 49">
            <g clip-path="url(#a)">
                <path fill="#fff" d="M127.637-35.371H.19V92.075h127.447V-35.37Z" />
                <mask id="b" width="128" height="129" x="0" y="-36" maskUnits="userSpaceOnUse"
                    style="mask-type:luminance">
                    <path fill="#fff" d="M127.637-35.371H.19V92.075h127.447V-35.37Z" />
                </mask>
                <g mask="url(#b)">
                    <path stroke="#171044" stroke-miterlimit="10" stroke-width=".357"
                        d="M10.883 35.171a.276.276 0 0 1-.168-.05c-.043-.032-.067-.086-.067-.16v-5.047c0-.072.02-.125.067-.16.043-.037.1-.05.168-.05h1.222c.128 0 .196.06.196.185v1.493c0 .068.036.1.104.1h5.632c.15 0 .225.053.225.16v1.604c0 .1-.068.15-.204.15h-5.614c-.097 0-.143.032-.143.093v1.486c0 .128-.064.192-.196.192h-1.222v.004Z" />
                </g>
                <mask id="c" width="128" height="129" x="0" y="-36" maskUnits="userSpaceOnUse"
                    style="mask-type:luminance">
                    <path fill="#fff" d="M127.637-35.371H.19V92.075h127.447V-35.37Z" />
                </mask>
                <g mask="url(#c)">
                    <path stroke="#171044" stroke-miterlimit="10" stroke-width=".357"
                        d="M15.212 26.558c0 .09.05.136.153.136h2.597c.2 0 .296.093.296.278v1.407c0 .09-.021.15-.06.182-.04.033-.108.047-.197.047h-7.118c-.157 0-.235-.054-.235-.16v-1.604c0-.1.07-.154.214-.154h2.378c.136 0 .207-.05.207-.154V25.12c0-.1-.067-.15-.207-.15h-2.378c-.143 0-.214-.05-.214-.154v-1.604c0-.107.078-.16.235-.16h7.118c.09 0 .154.014.197.046.042.032.06.093.06.182v1.407c0 .186-.1.28-.296.28h-2.597c-.103 0-.153.046-.153.135v1.457Z" />
                </g>
                <mask id="d" width="128" height="129" x="0" y="-36" maskUnits="userSpaceOnUse"
                    style="mask-type:luminance">
                    <path fill="#fff" d="M127.637-35.371H.19V92.075h127.447V-35.37Z" />
                </mask>
                <g mask="url(#d)">
                    <path stroke="#171044" stroke-miterlimit="10" stroke-width=".357"
                        d="M10.648 21.594v-4.553c0-.1.07-.154.214-.154l1.189.007c.186 0 .279.075.279.218v2.532c0 .129.064.193.196.193h.872c.142 0 .214-.05.214-.153v-1.518c0-.118.068-.179.203-.179h1.272c.046 0 .089.01.121.036.036.021.05.06.05.118v1.56c0 .09.047.136.143.136h1.025c.097 0 .143-.036.143-.1v-2.743c0-.125.064-.185.196-.185h1.261c.06 0 .114.014.157.046s.068.082.068.157v4.514c0 .154-.086.229-.257.229h-7.11c-.158 0-.236-.054-.236-.16Z" />
                </g>
                <mask id="e" width="128" height="129" x="0" y="-36" maskUnits="userSpaceOnUse"
                    style="mask-type:luminance">
                    <path fill="#fff" d="M127.637-35.371H.19V92.075h127.447V-35.37Z" />
                </mask>
                <g mask="url(#e)">
                    <path fill="#171044"
                        d="M21.405 35.598a.545.545 0 0 1-.168-.4V17.35c0-.189.06-.346.178-.475a.61.61 0 0 1 .465-.192h7.664c2.657 0 4.678.425 6.068 1.271 1.39.85 2.082 2.104 2.082 3.768 0 .893-.24 1.65-.722 2.275-.478.625-1.364 1.24-2.65 1.84-.035.017-.05.046-.05.088 0 .043.018.072.05.09 1.422.532 2.418 1.15 2.983 1.85.564.703.85 1.603.85 2.7 0 1.764-.672 3.071-2.018 3.921-1.347.85-3.407 1.272-6.186 1.272H21.83a.535.535 0 0 1-.425-.161Zm8.55-11.454c.307 0 .582-.042.821-.128a1.764 1.764 0 0 0 1.018-.925c.093-.207.143-.436.143-.693 0-.564-.21-1.014-.629-1.35-.421-.336-.928-.5-1.528-.5h-2.108c-.392 0-.592.171-.592.514v2.522c0 .378.146.564.435.564h2.44v-.004Zm-.129 7.765c.754 0 1.322-.208 1.697-.618.378-.411.564-.864.564-1.364 0-.361-.09-.68-.272-.95a1.803 1.803 0 0 0-.746-.643 2.54 2.54 0 0 0-1.118-.232h-2.29c-.392 0-.592.178-.592.539v2.7c0 .378.146.564.436.564h2.321v.004Z" />
                </g>
                <mask id="f" width="128" height="129" x="0" y="-36" maskUnits="userSpaceOnUse"
                    style="mask-type:luminance">
                    <path fill="#fff" d="M127.637-35.371H.19V92.075h127.447V-35.37Z" />
                </mask>
                <g mask="url(#f)">
                    <path fill="#171044"
                        d="M45.076 34.826c-1.389-.796-2.46-1.928-3.214-3.393-.753-1.464-1.132-3.186-1.132-5.157 0-1.99.386-3.721 1.157-5.193.772-1.475 1.85-2.618 3.24-3.432 1.389-.814 3.006-1.221 4.86-1.221 1.85 0 3.468.407 4.847 1.221 1.378.814 2.45 1.957 3.214 3.432.764 1.475 1.143 3.207 1.143 5.193 0 1.971-.379 3.686-1.132 5.143-.754 1.457-1.822 2.59-3.2 3.393-1.379.807-3.004 1.207-4.872 1.207-1.886.004-3.521-.396-4.91-1.193Zm7.29-4.1c.471-.857.707-2.314.707-4.371 0-2.125-.24-3.65-.722-4.579-.478-.925-1.267-1.39-2.364-1.39-1.114 0-1.914.465-2.404 1.39-.489.925-.732 2.454-.732 4.579 0 2.057.236 3.514.708 4.371.471.857 1.282 1.286 2.428 1.286 1.114 0 1.907-.429 2.379-1.286Z" />
                </g>
                <mask id="g" width="128" height="129" x="0" y="-36" maskUnits="userSpaceOnUse"
                    style="mask-type:luminance">
                    <path fill="#fff" d="M127.637-35.371H.19V92.075h127.447V-35.37Z" />
                </mask>
                <g mask="url(#g)">
                    <path fill="#171044"
                        d="M60.683 35.494c-.086-.178-.079-.407.025-.682l6.221-17.535c.086-.208.179-.358.283-.45.103-.093.264-.143.489-.143h5.068c.446 0 .753.232.925.692l6.171 17.511c.068.172.072.36.014.565-.057.203-.185.307-.371.307h-5.04c-.292 0-.481-.147-.564-.436l-1.003-2.957a1.126 1.126 0 0 0-.114-.218c-.043-.06-.133-.09-.272-.09h-5.45c-.207 0-.336.093-.386.283l-1.053 3.035a.616.616 0 0 1-.193.272c-.093.078-.236.114-.425.114h-3.907c-.193.004-.332-.086-.418-.268Zm10.543-7.803c.257 0 .336-.172.232-.514l-1.543-4.397c-.036-.086-.086-.129-.153-.129-.068 0-.122.043-.154.129l-1.568 4.371c-.136.361-.05.54.257.54h2.929Z" />
                </g>
                <mask id="h" width="128" height="129" x="0" y="-36" maskUnits="userSpaceOnUse"
                    style="mask-type:luminance">
                    <path fill="#fff" d="M127.637-35.371H.19V92.075h127.447V-35.37Z" />
                </mask>
                <g mask="url(#h)">
                    <path fill="#171044"
                        d="M79.455 17.276c0-.171.05-.314.154-.424.103-.111.264-.168.489-.168h15.375c.221 0 .386.057.49.168.103.11.153.253.153.424v3.061c0 .325-.19.49-.564.49h-4.55c-.208 0-.308.085-.308.257v14.118c0 .378-.164.564-.489.564H85.32c-.307 0-.464-.172-.464-.514V21.187c0-.24-.093-.36-.282-.36h-4.525c-.393 0-.59-.165-.59-.49v-3.06h-.003Z" />
                </g>
                <mask id="i" width="128" height="129" x="0" y="-36" maskUnits="userSpaceOnUse"
                    style="mask-type:luminance">
                    <path fill="#fff" d="M127.637-35.371H.19V92.075h127.447V-35.37Z" />
                </mask>
                <g mask="url(#i)">
                    <path fill="#171044"
                        d="M108.901 20.85c-.464-.292-1.2-.435-2.211-.435-.96 0-1.635.14-2.032.41-.396.276-.593.576-.593.9a.93.93 0 0 0 .143.476c.093.164.261.318.5.464.24.146.575.271 1.004.372l4.268 1.107c1.61.393 2.8 1.096 3.56 2.107.765 1.01 1.143 2.178 1.143 3.496 0 1.268-.335 2.375-1.003 3.318-.668.943-1.618 1.672-2.843 2.186-1.225.514-2.686.771-4.386.771-1.25 0-2.439-.143-3.561-.425-1.121-.282-2.103-.682-2.942-1.196-.84-.515-1.465-1.107-1.879-1.775-.103-.19-.146-.343-.129-.465.018-.12.111-.25.283-.385l2.65-1.825c.239-.154.435-.218.589-.193a.6.6 0 0 1 .386.243c.378.478.753.875 1.132 1.182.378.307.81.532 1.3.668.489.136 1.068.207 1.735.207.943 0 1.697-.129 2.265-.386.564-.257.85-.625.85-1.107 0-.207-.061-.4-.179-.579a1.6 1.6 0 0 0-.528-.474 3.248 3.248 0 0 0-.915-.336l-3.907-.95c-1.028-.257-1.921-.665-2.675-1.222a5.995 5.995 0 0 1-1.75-1.992 5.23 5.23 0 0 1-.618-2.493c0-1.115.322-2.136.965-3.061.642-.925 1.56-1.664 2.75-2.21 1.192-.55 2.592-.822 4.203-.822 1.029 0 2.011.114 2.943.346a10.12 10.12 0 0 1 2.507.965c.736.41 1.304.9 1.697 1.464.085.121.15.243.192.371.043.129-.021.26-.192.4l-2.804 2.032c-.121.086-.232.115-.332.09-.104-.025-.25-.125-.436-.297a5.438 5.438 0 0 0-1.15-.946Z" />
                </g>
                <mask id="j" width="128" height="129" x="0" y="-36" maskUnits="userSpaceOnUse"
                    style="mask-type:luminance">
                    <path fill="#fff" d="M127.637-35.371H.19V92.075h127.447V-35.37Z" />
                </mask>
                <g mask="url(#j)">
                    <path fill="#FBAA19"
                        d="M120.998 31.291c-.647.436-1.279.897-1.943 1.308-4.197 2.593-8.843 4.01-13.682 4.928-8.29 1.572-16.672 1.732-25.065 1.507-5.985-.16-11.968-.478-17.946-.8-7.207-.385-14.407-.946-21.622-1.257-9.157-.396-18.325-.539-27.439.782-1.214.175-2.414.429-3.678.525.385-.175.76-.364 1.153-.517 7.368-2.908 15.082-4.161 22.975-4.554 8.007-.4 15.99.082 23.972.607 9.767.647 19.532 1.436 29.314 1.71 11.318.319 22.528-.742 33.343-4.36.157-.054.335-.043.507-.06.036.056.075.12.111.181Z" />
                </g>
            </g>
            <defs>
                <clipPath id="a">
                    <path fill="#fff" d="M.19.342h127.62v48.57H.19z" />
                </clipPath>
            </defs>
            <clipPath id="clip0_968_771">
                <rect width="127.619" height="48.5714" fill="white" transform="translate(0.19043 0.341797)" />
            </clipPath>
        </symbol>



        <symbol id="icon-padlock" viewBox="0 0 32 33">
            <path fill="#171044"
                d="M24.005 14.149V9.363a8.022 8.022 0 0 0-2.396-5.766c-1.493-1.486-3.447-2.3-5.517-2.3h-.102c-4.415.006-8.002 3.62-8.002 8.067v4.786c-1.666.199-2.883 1.595-2.883 3.287v10.751c0 1.826 1.461 3.332 3.287 3.332h15.217c1.826 0 3.287-1.506 3.287-3.332V17.437c-.006-1.685-1.224-3.088-2.889-3.287zM9.262 9.363h.006c0-3.742 3.018-6.804 6.727-6.804h.006a6.64 6.64 0 0 1 4.703 1.935 6.782 6.782 0 0 1 2.012 4.869v4.793h-1.41V9.363a5.4 5.4 0 0 0-1.595-3.876 5.195 5.195 0 0 0-3.671-1.525h-.038c-2.947 0-5.331 2.422-5.331 5.395v4.799h-1.41V9.363zm10.771 0v4.793H11.96V9.363c0-2.268 1.807-4.113 4.049-4.113h.038c1.038 0 2.038.416 2.774 1.153a4.129 4.129 0 0 1 1.211 2.96zm5.638 18.844c0 1.121-.91 2.031-2.031 2.031H8.417a2.032 2.032 0 0 1-2.031-2.031V17.469c0-1.121.91-2.031 2.031-2.031H23.64c1.121 0 2.031.91 2.031 2.031v10.738z"
                style="fill:var(--color1, #171044)" />
            <path fill="#171044"
                d="M18.214 22.44a2.299 2.299 0 0 0-2.217-1.672 2.312 2.312 0 0 0-2.313 2.313 2.3 2.3 0 0 0 1.672 2.217v1.794c0 .352.288.641.641.641s.641-.288.641-.641v-1.794a2.304 2.304 0 0 0 1.576-2.858zm-2.217 1.665a1.031 1.031 0 1 1-.002-2.062 1.031 1.031 0 0 1 .002 2.062z"
                style="fill:var(--color1, #171044)" />
        </symbol>


        <symbol id="icon-user" viewBox="0 0 32 32">
            <path
                d="M15.785 14.94c1.993 0 3.719-.715 5.129-2.125s2.125-3.136 2.125-5.129c0-1.993-.715-3.718-2.125-5.129S17.778.432 15.785.432c-1.993 0-3.719.715-5.129 2.125S8.531 5.693 8.531 7.686c0 1.993.715 3.719 2.125 5.129s3.136 2.125 5.129 2.125zm-3.88-11.135c1.082-1.082 2.351-1.608 3.881-1.608s2.799.526 3.881 1.608c1.082 1.082 1.608 2.352 1.608 3.881s-.526 2.799-1.608 3.881c-1.082 1.082-2.352 1.608-3.881 1.608s-2.798-.526-3.881-1.608c-1.082-1.082-1.608-2.352-1.608-3.881s.526-2.798 1.608-3.881zM28.478 23.591a18.022 18.022 0 0 0-.244-1.903 15 15 0 0 0-.468-1.913 9.412 9.412 0 0 0-.787-1.784 6.715 6.715 0 0 0-1.186-1.546 5.23 5.23 0 0 0-1.704-1.071 5.891 5.891 0 0 0-2.175-.394c-.307 0-.605.126-1.179.5-.353.23-.767.497-1.228.792-.395.251-.929.487-1.589.7-.644.208-1.298.314-1.944.314s-1.299-.106-1.944-.314c-.659-.213-1.194-.449-1.588-.7-.457-.292-.871-.559-1.229-.792-.574-.374-.871-.5-1.179-.5-.783 0-1.515.133-2.175.394a5.208 5.208 0 0 0-1.704 1.071 6.721 6.721 0 0 0-1.186 1.546 9.484 9.484 0 0 0-.787 1.785 15.043 15.043 0 0 0-.468 1.913 17.972 17.972 0 0 0-.244 1.904c-.04.575-.06 1.174-.06 1.778 0 1.572.5 2.845 1.485 3.784.973.926 2.261 1.396 3.827 1.396h14.502c1.566 0 2.854-.47 3.827-1.396.986-.938 1.486-2.211 1.486-3.784 0-.607-.021-1.205-.061-1.779zm-2.641 4.284c-.643.612-1.497.91-2.61.91H8.725c-1.114 0-1.968-.297-2.611-.909-.631-.6-.937-1.42-.937-2.505 0-.564.019-1.122.056-1.656.036-.525.111-1.101.221-1.714.109-.605.247-1.173.412-1.687a7.71 7.71 0 0 1 .64-1.451c.255-.448.548-.833.872-1.142.303-.29.684-.527 1.133-.705a4.04 4.04 0 0 1 1.39-.268c.062.033.172.096.35.212.363.236.781.506 1.243.801.521.332 1.193.632 1.995.891.82.265 1.656.4 2.487.4s1.667-.135 2.486-.399c.803-.259 1.474-.559 1.996-.892.473-.302.88-.564 1.242-.801.178-.116.288-.179.35-.212.507.014.974.104 1.39.268.449.178.831.415 1.133.705.323.309.617.694.872 1.142.267.47.483.958.64 1.451.165.515.303 1.082.412 1.687.11.614.184 1.191.221 1.714.037.533.056 1.09.057 1.656 0 1.085-.307 1.905-.938 2.505z" />
        </symbol>


        <symbol id="icon-envelope" viewBox="0 0 32 32">
            <path
                d="M5.315 9.274 13.05 16l-7.737 6.728A1.008 1.008 0 0 1 5 21.993V10.007c0-.289.121-.549.315-.733zm22.372-.002c.194.184.313.445.313.735v11.986c0 .289-.121.549-.315.733L19.95 16l7.737-6.728zm-8.485 7.379L26.5 23h-20l7.298-6.349L16.5 19l2.702-2.349zM6.004 8A2 2 0 0 0 4 9.994v12.012C4 23.107 4.89 24 6.004 24h20.993a2 2 0 0 0 2.004-1.994V9.994c0-1.101-.89-1.994-2.004-1.994H6.004zM16.5 17.7 6.5 9h20l-10 8.7z" />

        </symbol>


        <symbol id="icon-invisible" viewBox="0 0 32 32">
            <path d="m15.773 10.693 4.275 4.275.02-.224a4.076 4.076 0 0 0-4.072-4.072l-.224.02z" />
            <path
                d="M15.996 7.958a6.788 6.788 0 0 1 6.786 6.786c0 .875-.176 1.71-.482 2.477l3.97 3.97a16.113 16.113 0 0 0 4.662-6.447c-2.355-5.958-8.144-10.18-14.937-10.18-1.9 0-3.719.339-5.409.95l2.932 2.925a6.81 6.81 0 0 1 2.477-.482zM2.424 4.26l3.712 3.712a16.068 16.068 0 0 0-5.069 6.773c2.348 5.958 8.144 10.18 14.93 10.18 2.104 0 4.112-.407 5.952-1.147l.577.577 3.956 3.963 1.731-1.724L4.155 2.53 2.424 4.261zm7.506 7.499 2.097 2.097a4.31 4.31 0 0 0-.102.889 4.075 4.075 0 0 0 4.072 4.072c.305 0 .597-.041.882-.102l2.097 2.097a6.676 6.676 0 0 1-2.979.719 6.788 6.788 0 0 1-6.786-6.786c0-1.072.271-2.077.719-2.986z" />
        </symbol>


        <symbol id="icon-padlock1" viewBox="0 0 32 33">
            <path fill="#171044"
                d="M24.005 14.149V9.363a8.022 8.022 0 0 0-2.396-5.766c-1.493-1.486-3.447-2.3-5.517-2.3h-.102c-4.415.006-8.002 3.62-8.002 8.067v4.786c-1.666.199-2.883 1.595-2.883 3.287v10.751c0 1.826 1.461 3.332 3.287 3.332h15.217c1.826 0 3.287-1.506 3.287-3.332V17.437c-.006-1.685-1.224-3.088-2.889-3.287zM9.262 9.363h.006c0-3.742 3.018-6.804 6.727-6.804h.006a6.64 6.64 0 0 1 4.703 1.935 6.782 6.782 0 0 1 2.012 4.869v4.793h-1.41V9.363a5.4 5.4 0 0 0-1.595-3.876 5.195 5.195 0 0 0-3.671-1.525h-.038c-2.947 0-5.331 2.422-5.331 5.395v4.799h-1.41V9.363zm10.771 0v4.793H11.96V9.363c0-2.268 1.807-4.113 4.049-4.113h.038c1.038 0 2.038.416 2.774 1.153a4.129 4.129 0 0 1 1.211 2.96zm5.638 18.844c0 1.121-.91 2.031-2.031 2.031H8.417a2.032 2.032 0 0 1-2.031-2.031V17.469c0-1.121.91-2.031 2.031-2.031H23.64c1.121 0 2.031.91 2.031 2.031v10.738z"
                style="fill:var(--color1, #171044)" />
            <path fill="#171044"
                d="M18.214 22.44a2.299 2.299 0 0 0-2.217-1.672 2.312 2.312 0 0 0-2.313 2.313 2.3 2.3 0 0 0 1.672 2.217v1.794c0 .352.288.641.641.641s.641-.288.641-.641v-1.794a2.304 2.304 0 0 0 1.576-2.858zm-2.217 1.665a1.031 1.031 0 1 1-.002-2.062 1.031 1.031 0 0 1 .002 2.062z"
                style="fill:var(--color1, #171044)" />
        </symbol>

        <symbol id="icon-google" viewBox="0 0 32 32">
            <path fill="#4285f4"
                d="M29.646 16.226c0-1.136-.094-1.965-.298-2.825H16.109v5.128h7.771c-.157 1.274-1.003 3.194-2.883 4.483l-.026.172 4.186 3.178.29.028c2.664-2.411 4.199-5.958 4.199-10.165z"
                style="fill:var(--color1, #4285f4)" />
            <path fill="#34a853"
                d="M16.109 29.737c3.807 0 7.003-1.228 9.338-3.347l-4.45-3.378c-1.191.814-2.789 1.382-4.888 1.382a8.473 8.473 0 0 1-8.022-5.743l-.165.014-4.353 3.301-.057.155c2.319 4.514 7.082 7.616 12.597 7.616z"
                style="fill:var(--color2, #34a853)" />
            <path fill="#fbbc05"
                d="M8.087 18.652c-.298-.86-.47-1.781-.47-2.733s.172-1.873.454-2.733l-.008-.183-4.407-3.354-.144.067c-.956 1.873-1.504 3.977-1.504 6.203s.548 4.33 1.504 6.203l4.575-3.47z"
                style="fill:var(--color3, #fbbc05)" />
            <path fill="#eb4335"
                d="M16.109 7.442c2.648 0 4.434 1.121 5.452 2.058l3.98-3.808c-2.444-2.226-5.625-3.593-9.432-3.593-5.515 0-10.278 3.102-12.597 7.616l4.559 3.47c1.144-3.332 4.309-5.743 8.038-5.743z"
                style="fill:var(--color4, #eb4335)" />
        </symbol>


        <symbol id="icon-apple" viewBox="0 0 33 32">
            <path fill="#283544"
                d="M30.134 15.918c0 7.628-6.184 13.819-13.819 13.819S2.496 23.546 2.496 15.918c0-7.635 6.184-13.819 13.819-13.819s13.819 6.184 13.819 13.819z"
                style="fill:var(--color5, #283544)" />
            <path fill="#fff"
                d="M22.793 12.421c-.075.044-1.871.972-1.871 3.031.085 2.348 2.265 3.171 2.303 3.171-.037.044-.329 1.122-1.194 2.251-.686.973-1.447 1.954-2.604 1.954-1.1 0-1.495-.648-2.764-.648-1.363 0-1.748.648-2.792.648-1.156 0-1.974-1.034-2.698-1.997-.94-1.261-1.739-3.241-1.767-5.142-.019-1.007.188-1.997.714-2.838.742-1.174 2.068-1.971 3.515-1.997 1.109-.035 2.096.71 2.773.71.649 0 1.861-.71 3.233-.71.592.001 2.172.167 3.149 1.568zm-6.477-1.769c-.197-.92.348-1.84.855-2.426.649-.71 1.673-1.191 2.557-1.191a3.292 3.292 0 0 1-.94 2.479c-.573.71-1.56 1.244-2.472 1.139z"
                style="fill:var(--color6, #fff)" />
        </symbol>

        <symbol id="icon-facebook" viewBox="0 0 31 32">

            <path
                d="M29.296 14.804c0 7.455-6.043 13.498-13.498 13.498S2.3 22.259 2.3 14.804c0-7.455 6.043-13.498 13.498-13.498s13.498 6.043 13.498 13.498z" />
            <path fill="#fff"
                d="m20.824 20.166.6-3.81h-3.751v-2.471c0-1.043.523-2.059 2.203-2.059h1.706V8.583s-1.548-.257-3.027-.257c-3.09 0-5.108 1.825-5.108 5.128v2.904h-3.434v3.81h3.434v9.21c.689.106 1.395.16 2.113.16s1.424-.054 2.113-.16v-9.21h3.151z"
                style="fill:var(--color6, #fff)" />


        </symbol>
    </defs>
</svg>