<svg aria-hidden="true" xmlns="http://www.w3.org/2000/svg">
    <defs>
        <symbol id="logo" viewBox="0 0 256 99">
            <g clip-path="url(#a)">
                <mask id="b" style="mask-type:luminance" maskUnits="userSpaceOnUse" x="0" y="-71" width="255"
                    height="256">
                    <path d="M254.893-70.5H0v254.893h254.893V-70.5Z" fill="#fff" />
                </mask>
                <g mask="url(#b)">
                    <path
                        d="M21.386 70.586a.551.551 0 0 1-.336-.1c-.086-.064-.136-.171-.136-.321V60.072c0-.143.043-.25.136-.322.085-.071.2-.1.335-.1h2.443c.258 0 .393.122.393.372v2.986c0 .135.072.2.207.2h11.265c.3 0 .45.107.45.321v3.207c0 .2-.136.3-.407.3h-11.23c-.192 0-.285.064-.285.186v2.971c0 .257-.128.386-.393.386h-2.442v.007Z"
                        fill="#fff" stroke="#171044" stroke-width=".714" stroke-miterlimit="10" />
                </g>
                <mask id="c" style="mask-type:luminance" maskUnits="userSpaceOnUse" x="0" y="-71" width="255"
                    height="256">
                    <path d="M254.893-70.5H0v254.893h254.893V-70.5Z" fill="#fff" />
                </mask>
                <g mask="url(#c)">
                    <path
                        d="M30.043 53.357c0 .179.1.272.307.272h5.193c.4 0 .593.185.593.557V57c0 .178-.043.3-.122.364-.079.065-.214.093-.393.093H21.385c-.314 0-.47-.107-.47-.321v-3.208c0-.2.142-.307.428-.307H26.1c.271 0 .414-.1.414-.307v-2.836c0-.2-.136-.3-.414-.3h-4.757c-.286 0-.429-.1-.429-.307v-3.207c0-.214.157-.321.471-.321h14.236c.179 0 .307.028.393.093.086.064.121.185.121.364v2.814c0 .372-.2.557-.592.557H30.35c-.207 0-.307.093-.307.272v2.914Z"
                        fill="#fff" stroke="#171044" stroke-width=".714" stroke-miterlimit="10" />
                </g>
                <mask id="d" style="mask-type:luminance" maskUnits="userSpaceOnUse" x="0" y="-71" width="255"
                    height="256">
                    <path d="M254.893-70.5H0v254.893h254.893V-70.5Z" fill="#fff" />
                </mask>
                <g mask="url(#d)">
                    <path
                        d="M20.914 43.436v-9.108c0-.2.143-.307.429-.307l2.378.015c.372 0 .557.15.557.435v5.065c0 .257.129.385.393.385h1.743c.286 0 .429-.1.429-.307V36.58c0-.236.135-.358.407-.358h2.543c.093 0 .178.022.242.072.072.043.1.121.1.236v3.121c0 .178.093.271.286.271h2.05c.193 0 .286-.071.286-.2v-5.485c0-.25.129-.372.393-.372h2.521c.122 0 .229.029.315.093.085.064.135.164.135.314V43.3c0 .307-.171.457-.514.457H21.386c-.315 0-.472-.107-.472-.321Z"
                        fill="#fff" stroke="#171044" stroke-width=".714" stroke-miterlimit="10" />
                </g>
                <mask id="e" style="mask-type:luminance" maskUnits="userSpaceOnUse" x="0" y="-71" width="255"
                    height="256">
                    <path d="M254.893-70.5H0v254.893h254.893V-70.5Z" fill="#fff" />
                </mask>
                <g mask="url(#e)">
                    <path
                        d="M42.428 71.436a1.09 1.09 0 0 1-.335-.8V34.943c0-.378.121-.693.357-.95.243-.257.55-.386.928-.386h15.33c5.313 0 9.356.85 12.135 2.543 2.778 1.7 4.164 4.207 4.164 7.536 0 1.786-.479 3.3-1.443 4.55-.957 1.25-2.728 2.479-5.3 3.679-.071.035-.1.092-.1.178s.036.143.1.179c2.843 1.064 4.836 2.3 5.965 3.7 1.128 1.407 1.7 3.207 1.7 5.4 0 3.528-1.343 6.143-4.036 7.843-2.693 1.7-6.814 2.542-12.372 2.542H43.28c-.343.015-.63-.092-.85-.321Zm17.1-22.907c.615 0 1.165-.086 1.643-.257a3.527 3.527 0 0 0 1.236-.743c.343-.329.607-.693.8-1.107.186-.415.286-.872.286-1.386 0-1.129-.422-2.029-1.257-2.7-.843-.671-1.857-1-3.057-1h-4.215c-.785 0-1.185.343-1.185 1.029v5.042c0 .758.292 1.129.87 1.129h4.88v-.007Zm-.257 15.528c1.508 0 2.643-.414 3.393-1.235.757-.822 1.129-1.729 1.129-2.729 0-.721-.179-1.357-.543-1.9-.357-.55-.857-.978-1.493-1.286-.636-.307-1.378-.464-2.236-.464h-4.578c-.786 0-1.186.357-1.186 1.079v5.4c0 .757.293 1.128.872 1.128h4.642v.007Z"
                        fill="#171044" />
                </g>
                <mask id="f" style="mask-type:luminance" maskUnits="userSpaceOnUse" x="0" y="-71" width="255"
                    height="256">
                    <path d="M254.893-70.5H0v254.893h254.893V-70.5Z" fill="#fff" />
                </mask>
                <g mask="url(#f)">
                    <path
                        d="M89.772 69.892c-2.779-1.592-4.922-3.857-6.429-6.785-1.507-2.929-2.264-6.372-2.264-10.315 0-3.978.772-7.442 2.314-10.385 1.543-2.95 3.7-5.236 6.479-6.864 2.778-1.63 6.014-2.443 9.721-2.443 3.7 0 6.936.814 9.693 2.442 2.757 1.629 4.9 3.915 6.429 6.865 1.528 2.95 2.286 6.414 2.286 10.386 0 3.942-.758 7.37-2.265 10.285-1.507 2.915-3.643 5.179-6.4 6.786-2.757 1.614-6.007 2.414-9.743 2.414-3.771.007-7.043-.793-9.821-2.386Zm14.579-8.2c.942-1.714 1.414-4.628 1.414-8.742 0-4.25-.479-7.3-1.443-9.158-.957-1.85-2.536-2.778-4.729-2.778-2.228 0-3.828.928-4.807 2.778-.978 1.85-1.464 4.908-1.464 9.158 0 4.114.471 7.028 1.414 8.742.943 1.715 2.564 2.572 4.857 2.572 2.229 0 3.815-.857 4.758-2.571Z"
                        fill="#171044" />
                </g>
                <mask id="g" style="mask-type:luminance" maskUnits="userSpaceOnUse" x="0" y="-71" width="255"
                    height="256">
                    <path d="M254.893-70.5H0v254.893h254.893V-70.5Z" fill="#fff" />
                </mask>
                <g mask="url(#g)">
                    <path
                        d="M120.986 71.229c-.172-.357-.157-.814.05-1.364l12.443-35.072c.171-.414.357-.714.564-.9.207-.186.528-.286.978-.286h10.136c.893 0 1.507.465 1.85 1.386l12.343 35.022c.136.342.143.721.029 1.128-.115.407-.372.614-.743.614h-10.079c-.586 0-.964-.292-1.128-.871l-2.008-5.914a2.21 2.21 0 0 0-.228-.436c-.086-.121-.264-.179-.543-.179h-10.9c-.414 0-.671.186-.771.565l-2.108 6.071c-.071.207-.2.386-.385.543-.186.157-.472.229-.85.229h-7.815c-.385.007-.664-.172-.835-.536Zm21.085-15.607c.515 0 .672-.343.465-1.029L139.45 45.8c-.071-.171-.171-.257-.307-.257-.136 0-.243.086-.307.257l-3.136 8.743c-.271.722-.1 1.079.514 1.079h5.857Z"
                        fill="#171044" />
                </g>
                <mask id="h" style="mask-type:luminance" maskUnits="userSpaceOnUse" x="0" y="-71" width="255"
                    height="256">
                    <path d="M254.893-70.5H0v254.893h254.893V-70.5Z" fill="#fff" />
                </mask>
                <g mask="url(#h)">
                    <path
                        d="M158.529 34.793c0-.343.1-.628.307-.85.207-.221.529-.336.979-.336h30.75c.442 0 .771.115.978.336.207.222.307.507.307.85v6.122c0 .65-.378.978-1.128.978h-9.1c-.415 0-.615.172-.615.514v28.236c0 .757-.328 1.129-.978 1.129h-9.772c-.614 0-.928-.343-.928-1.029V42.615c0-.479-.186-.722-.564-.722h-9.05c-.786 0-1.179-.328-1.179-.978v-6.122h-.007Z"
                        fill="#171044" />
                </g>
                <mask id="i" style="mask-type:luminance" maskUnits="userSpaceOnUse" x="0" y="-71" width="255"
                    height="256">
                    <path d="M254.893-70.5H0v254.893h254.893V-70.5Z" fill="#fff" />
                </mask>
                <g mask="url(#i)">
                    <path
                        d="M217.421 41.943c-.928-.586-2.4-.872-4.421-.872-1.921 0-3.271.279-4.064.822-.793.55-1.186 1.15-1.186 1.8 0 .307.093.628.286.95.185.328.521.636 1 .928.478.293 1.15.543 2.007.743l8.536 2.215c3.221.785 5.6 2.192 7.121 4.214 1.529 2.021 2.286 4.357 2.286 6.993 0 2.535-.672 4.75-2.007 6.635-1.336 1.886-3.236 3.343-5.686 4.372-2.45 1.028-5.372 1.543-8.772 1.543-2.5 0-4.878-.286-7.121-.85-2.243-.565-4.207-1.365-5.886-2.393-1.678-1.029-2.928-2.215-3.757-3.55-.207-.379-.293-.686-.257-.929.036-.243.221-.5.564-.771l5.3-3.65c.479-.307.872-.436 1.179-.386.307.05.564.214.771.486.757.957 1.507 1.75 2.265 2.364a7.086 7.086 0 0 0 2.6 1.336c.978.271 2.135.414 3.471.414 1.886 0 3.393-.257 4.529-.771 1.128-.515 1.7-1.25 1.7-2.215 0-.414-.122-.8-.358-1.157-.242-.357-.592-.678-1.057-.95-.464-.271-1.071-.5-1.828-.671l-7.815-1.9c-2.057-.514-3.842-1.329-5.35-2.443-1.507-1.114-2.671-2.443-3.5-3.986a10.462 10.462 0 0 1-1.235-4.986c0-2.228.643-4.27 1.928-6.12 1.286-1.85 3.122-3.33 5.5-4.422 2.386-1.1 5.186-1.643 8.407-1.643 2.058 0 4.022.228 5.886.693 1.872.464 3.543 1.107 5.014 1.928 1.472.822 2.608 1.8 3.393 2.929.172.243.3.486.386.743.086.257-.043.521-.386.8l-5.607 4.064c-.243.171-.464.228-.664.178-.207-.05-.5-.25-.872-.592-.607-.679-1.378-1.307-2.3-1.893Z"
                        fill="#171044" />
                </g>
                <mask id="j" style="mask-type:luminance" maskUnits="userSpaceOnUse" x="0" y="-71" width="255"
                    height="256">
                    <path d="M254.893-70.5H0v254.893h254.893V-70.5Z" fill="#fff" />
                </mask>
                <g mask="url(#j)">
                    <path
                        d="M241.614 62.828c-1.293.872-2.557 1.793-3.885 2.614-8.393 5.186-17.686 8.022-27.365 9.858-16.578 3.142-33.343 3.464-50.128 3.014-11.972-.322-23.936-.957-35.893-1.6-14.414-.772-28.815-1.893-43.243-2.514-18.314-.793-36.65-1.079-54.879 1.564-2.428.35-4.828.857-7.357 1.05.772-.35 1.522-.729 2.307-1.036 14.736-5.814 30.165-8.321 45.95-9.107 16.015-.8 31.979.164 47.943 1.214 19.536 1.293 39.065 2.872 58.629 3.422 22.636.635 45.057-1.486 66.686-8.722.314-.107.671-.085 1.014-.121.071.114.15.243.221.364Z"
                        fill="#FBAA19" />
                </g>
            </g>
            <defs>
                <clipPath id="a">
                    <path fill="#fff" transform="translate(0 .929)" d="M0 0h255.238v97.143H0z" />
                </clipPath>
            </defs>
        </symbol>


        <symbol id="share" viewBox="0 0 37 37">
            <path
                d="M.238 18.5c0-9.942 8.06-18 18-18 9.941 0 18 8.058 18 18 0 9.941-8.059 18-18 18-9.94 0-18-8.059-18-18Z" />
            <path
                d="M10.867 22.468a3.904 3.904 0 1 0 0-7.808 3.904 3.904 0 0 0 0 7.808ZM22.785 15.528a3.904 3.904 0 1 0 0-7.808 3.904 3.904 0 0 0 0 7.808ZM22.785 29.28a3.904 3.904 0 1 0 0-7.808 3.904 3.904 0 0 0 0 7.808Z"
                fill="#fff" />
            <path d="m11.396 19.339-1.056-1.814 11.918-6.94 1.056 1.814-11.918 6.94Z" fill="#fff" />
            <path d="m22.257 26.28-11.918-6.94 1.056-1.814 11.918 6.94-1.056 1.813Z" fill="#fff" />
        </symbol>



        <symbol id="instagram" viewBox="0 0 37 37">
            <path d="M18.238 12.194a6.306 6.306 0 1 0 0 12.612 6.306 6.306 0 0 0 0-12.613Z" />
            <path fill-rule="evenodd" clip-rule="evenodd"
                d="M1.238 17.952c0-6.855 0-10.282 1.746-12.684a9.14 9.14 0 0 1 2.022-2.022C7.408 1.5 10.836 1.5 17.69 1.5h1.097c6.854 0 10.281 0 12.684 1.746a9.14 9.14 0 0 1 2.022 2.022c1.745 2.402 1.745 5.83 1.745 12.684v1.096c0 6.855 0 10.282-1.745 12.684a9.14 9.14 0 0 1-2.022 2.023C29.068 35.5 25.64 35.5 18.787 35.5H17.69c-6.855 0-10.282 0-12.684-1.745a9.14 9.14 0 0 1-2.022-2.023c-1.746-2.402-1.746-5.83-1.746-12.684v-1.096Zm7.586.548a9.414 9.414 0 1 1 18.828 0 9.414 9.414 0 0 1-18.828 0Zm19.4-12.065a2.125 2.125 0 1 0 0 4.25 2.125 2.125 0 0 0 0-4.25Z" />
        </symbol>



        <symbol id="youtobe" viewBox="0 0 37 37">
            <g clip-path="url(#a)">
                <path d="m15.742 21.404 4.993-2.896-4.993-2.911v5.807Z" />
                <path
                    d="M18.238.5a18 18 0 1 0 0 36 18 18 0 0 0 0-36Zm9.474 21.186a3.585 3.585 0 0 1-3.583 3.585H12.348a3.584 3.584 0 0 1-3.583-3.585v-6.371a3.584 3.584 0 0 1 3.583-3.586h11.78a3.584 3.584 0 0 1 3.584 3.586v6.37Z" />
            </g>
            <defs>
                <clipPath id="a">
                    <path fill="#fff" transform="translate(.238 .5)" d="M0 0h36v36H0z" />
                </clipPath>
            </defs>
        </symbol>



        <symbol id="facebook" viewBox="0 0 37 37">
            <path
                d="M36.238 18.61c0-10.002-8.06-18.11-18-18.11s-18 8.108-18 18.11c0 9.039 6.582 16.53 15.188 17.889V23.843h-4.57v-5.236h4.57V14.62c0-4.538 2.688-7.046 6.8-7.046 1.967 0 4.028.354 4.028.354v4.457h-2.27c-2.237 0-2.935 1.396-2.935 2.828v3.395h4.992l-.798 5.237H21.05V36.5c8.607-1.36 15.19-8.852 15.19-17.89Z" />
        </symbol>

        <symbol id="icon-arrow-right" viewBox="0 0 24 24">
            <path
                d="M11.293 5.707 16.586 11H5a1 1 0 0 0 0 2h11.586l-5.293 5.293a.999.999 0 1 0 1.414 1.414l7-7a1.006 1.006 0 0 0 0-1.414l-7-7a.999.999 0 1 0-1.414 1.414z" />
        </symbol>
        <symbol id="icon-arrow-left" viewBox="0 0 24 24">
            <path
                d="M12.707 18.293 7.414 13H19a1 1 0 0 0 0-2H7.414l5.293-5.293a.999.999 0 1 0-1.414-1.414l-7 7a.998.998 0 0 0 0 1.414l7 7a.999.999 0 1 0 1.414-1.414z" />
        </symbol>



        <symbol id="logo-footer" viewBox="0 0 128 49">
            <g id="the boats logo navy blue 2" clip-path="url(#clip0_968_771)">
                <path id="Vector" d="M127.637 -35.3711H0.19043V92.0753H127.637V-35.3711Z" fill="white" />
                <g id="Group">
                    <g id="Clip path group">
                        <mask id="mask0_968_771" style="mask-type:luminance" maskUnits="userSpaceOnUse" x="0" y="-36"
                            width="128" height="129">
                            <g id="SVGID_2_">
                                <path id="Vector_2" d="M127.637 -35.3711H0.19043V92.0753H127.637V-35.3711Z"
                                    fill="white" />
                            </g>
                        </mask>
                        <g mask="url(#mask0_968_771)">
                            <path id="Vector_3"
                                d="M10.8832 35.171C10.8153 35.171 10.7582 35.1531 10.7153 35.121C10.6725 35.0888 10.6475 35.0353 10.6475 34.9603V29.9138C10.6475 29.8424 10.6689 29.7888 10.7153 29.7531C10.7582 29.7174 10.8153 29.7031 10.8832 29.7031H12.1046C12.2332 29.7031 12.301 29.7638 12.301 29.8888V31.3817C12.301 31.4496 12.3367 31.4817 12.4046 31.4817H18.0367C18.1867 31.4817 18.2617 31.5353 18.2617 31.6424V33.246C18.2617 33.346 18.1939 33.396 18.0582 33.396H12.4439C12.3475 33.396 12.301 33.4281 12.301 33.4888V34.9746C12.301 35.1031 12.2367 35.1674 12.1046 35.1674H10.8832V35.171Z"
                                stroke="#171044" stroke-width="0.357143" stroke-miterlimit="10" />
                        </g>
                    </g>
                    <g id="Clip path group_2">
                        <mask id="mask1_968_771" style="mask-type:luminance" maskUnits="userSpaceOnUse" x="0" y="-36"
                            width="128" height="129">
                            <g id="SVGID_2__2">
                                <path id="Vector_4" d="M127.637 -35.3711H0.19043V92.0753H127.637V-35.3711Z"
                                    fill="white" />
                            </g>
                        </mask>
                        <g mask="url(#mask1_968_771)">
                            <path id="Vector_5"
                                d="M15.2117 26.5579C15.2117 26.6472 15.2617 26.6936 15.3653 26.6936H17.9617C18.1617 26.6936 18.2582 26.7865 18.2582 26.9722V28.3794C18.2582 28.4686 18.2367 28.5293 18.1975 28.5615C18.1582 28.5936 18.0903 28.6079 18.001 28.6079H10.8832C10.726 28.6079 10.6475 28.5544 10.6475 28.4472V26.8436C10.6475 26.7436 10.7189 26.6901 10.8617 26.6901H13.2403C13.376 26.6901 13.4475 26.6401 13.4475 26.5365V25.1186C13.4475 25.0186 13.3796 24.9686 13.2403 24.9686H10.8617C10.7189 24.9686 10.6475 24.9186 10.6475 24.8151V23.2115C10.6475 23.1044 10.726 23.0508 10.8832 23.0508H18.001C18.0903 23.0508 18.1546 23.0651 18.1975 23.0972C18.2403 23.1294 18.2582 23.1901 18.2582 23.2794V24.6865C18.2582 24.8722 18.1582 24.9651 17.9617 24.9651H15.3653C15.2617 24.9651 15.2117 25.0115 15.2117 25.1008V26.5579Z"
                                stroke="#171044" stroke-width="0.357143" stroke-miterlimit="10" />
                        </g>
                    </g>
                    <g id="Clip path group_3">
                        <mask id="mask2_968_771" style="mask-type:luminance" maskUnits="userSpaceOnUse" x="0" y="-36"
                            width="128" height="129">
                            <g id="SVGID_2__3">
                                <path id="Vector_6" d="M127.637 -35.3711H0.19043V92.0753H127.637V-35.3711Z"
                                    fill="white" />
                            </g>
                        </mask>
                        <g mask="url(#mask2_968_771)">
                            <path id="Vector_7"
                                d="M10.6475 21.5943V17.0407C10.6475 16.9407 10.7189 16.8872 10.8617 16.8872L12.051 16.8943C12.2367 16.8943 12.3296 16.9693 12.3296 17.1122V19.6443C12.3296 19.7729 12.3939 19.8372 12.526 19.8372H13.3975C13.5403 19.8372 13.6117 19.7872 13.6117 19.6836V18.1657C13.6117 18.0479 13.6796 17.9872 13.8153 17.9872H15.0867C15.1332 17.9872 15.176 17.9979 15.2082 18.0229C15.2439 18.0443 15.2582 18.0836 15.2582 18.1407V19.7015C15.2582 19.7907 15.3046 19.8372 15.401 19.8372H16.426C16.5225 19.8372 16.5689 19.8014 16.5689 19.7372V16.9943C16.5689 16.8693 16.6332 16.8086 16.7653 16.8086H18.026C18.0867 16.8086 18.1403 16.8229 18.1832 16.855C18.226 16.8872 18.251 16.9372 18.251 17.0122V21.5265C18.251 21.68 18.1653 21.755 17.9939 21.755H10.8832C10.726 21.755 10.6475 21.7014 10.6475 21.5943Z"
                                stroke="#171044" stroke-width="0.357143" stroke-miterlimit="10" />
                        </g>
                    </g>
                    <g id="Clip path group_4">
                        <mask id="mask3_968_771" style="mask-type:luminance" maskUnits="userSpaceOnUse" x="0" y="-36"
                            width="128" height="129">
                            <g id="SVGID_2__4">
                                <path id="Vector_8" d="M127.637 -35.3711H0.19043V92.0753H127.637V-35.3711Z"
                                    fill="white" />
                            </g>
                        </mask>
                        <g mask="url(#mask3_968_771)">
                            <path id="Vector_9"
                                d="M21.4047 35.5979C21.294 35.4872 21.2368 35.355 21.2368 35.1979V17.3514C21.2368 17.1622 21.2975 17.005 21.4154 16.8764C21.5368 16.7479 21.6904 16.6836 21.8797 16.6836H29.544C32.2011 16.6836 34.2225 17.1086 35.6118 17.955C37.0011 18.805 37.694 20.0586 37.694 21.7229C37.694 22.6157 37.4547 23.3729 36.9725 23.9979C36.494 24.6229 35.6082 25.2372 34.3225 25.8372C34.2868 25.855 34.2725 25.8836 34.2725 25.9265C34.2725 25.9693 34.2904 25.9979 34.3225 26.0157C35.744 26.5479 36.7404 27.1657 37.3047 27.8657C37.869 28.5693 38.1547 29.4693 38.1547 30.5657C38.1547 32.33 37.4832 33.6372 36.1368 34.4872C34.7904 35.3372 32.7297 35.7586 29.9511 35.7586H21.8297C21.6582 35.7657 21.5154 35.7122 21.4047 35.5979ZM29.9547 24.1443C30.2618 24.1443 30.5368 24.1015 30.7761 24.0157C31.0154 23.93 31.2225 23.805 31.394 23.6443C31.5654 23.48 31.6975 23.2979 31.794 23.0907C31.8868 22.8836 31.9368 22.655 31.9368 22.3979C31.9368 21.8336 31.7261 21.3836 31.3082 21.0479C30.8868 20.7122 30.3797 20.5479 29.7797 20.5479H27.6725C27.2797 20.5479 27.0797 20.7193 27.0797 21.0622V23.5836C27.0797 23.9622 27.2261 24.1479 27.5154 24.1479H29.9547V24.1443ZM29.8261 31.9086C30.5797 31.9086 31.1475 31.7014 31.5225 31.2907C31.9011 30.88 32.0868 30.4265 32.0868 29.9265C32.0868 29.5657 31.9975 29.2479 31.8154 28.9765C31.6368 28.7015 31.3868 28.4872 31.069 28.3336C30.7511 28.18 30.3797 28.1015 29.9511 28.1015H27.6618C27.269 28.1015 27.069 28.28 27.069 28.6407V31.3407C27.069 31.7193 27.2154 31.905 27.5047 31.905H29.8261V31.9086Z"
                                fill="#171044" />
                        </g>
                    </g>
                    <g id="Clip path group_5">
                        <mask id="mask4_968_771" style="mask-type:luminance" maskUnits="userSpaceOnUse" x="0" y="-36"
                            width="128" height="129">
                            <g id="SVGID_2__5">
                                <path id="Vector_10" d="M127.637 -35.3711H0.19043V92.0753H127.637V-35.3711Z"
                                    fill="white" />
                            </g>
                        </mask>
                        <g mask="url(#mask4_968_771)">
                            <path id="Vector_11"
                                d="M45.0764 34.8261C43.6871 34.0297 42.6157 32.8975 41.8621 31.4333C41.1086 29.969 40.73 28.2475 40.73 26.2761C40.73 24.2868 41.1157 22.5547 41.8871 21.0833C42.6586 19.6083 43.7371 18.4654 45.1264 17.6511C46.5157 16.8368 48.1335 16.4297 49.9871 16.4297C51.8371 16.4297 53.455 16.8368 54.8336 17.6511C56.2121 18.4654 57.2836 19.6083 58.0478 21.0833C58.8121 22.5583 59.1907 24.2904 59.1907 26.2761C59.1907 28.2475 58.8121 29.9618 58.0586 31.419C57.305 32.8761 56.2371 34.0083 54.8586 34.8118C53.48 35.619 51.855 36.019 49.9871 36.019C48.1014 36.0225 46.4657 35.6225 45.0764 34.8261ZM52.3657 30.7261C52.8371 29.869 53.0728 28.4118 53.0728 26.3547C53.0728 24.2297 52.8336 22.7047 52.3514 21.7761C51.8728 20.8511 51.0835 20.3868 49.9871 20.3868C48.8728 20.3868 48.0728 20.8511 47.5835 21.7761C47.0943 22.7011 46.8514 24.2297 46.8514 26.3547C46.8514 28.4118 47.0871 29.869 47.5586 30.7261C48.03 31.5833 48.8407 32.0118 49.9871 32.0118C51.1014 32.0118 51.8943 31.5833 52.3657 30.7261Z"
                                fill="#171044" />
                        </g>
                    </g>
                    <g id="Clip path group_6">
                        <mask id="mask5_968_771" style="mask-type:luminance" maskUnits="userSpaceOnUse" x="0" y="-36"
                            width="128" height="129">
                            <g id="SVGID_2__6">
                                <path id="Vector_12" d="M127.637 -35.3711H0.19043V92.0753H127.637V-35.3711Z"
                                    fill="white" />
                            </g>
                        </mask>
                        <g mask="url(#mask5_968_771)">
                            <path id="Vector_13"
                                d="M60.683 35.4943C60.5973 35.3157 60.6044 35.0872 60.708 34.8122L66.9294 17.2765C67.0152 17.0693 67.108 16.9193 67.2116 16.8264C67.3152 16.7336 67.4759 16.6836 67.7009 16.6836H72.7687C73.2152 16.6836 73.5223 16.9157 73.6937 17.3765L79.8652 34.8872C79.933 35.0586 79.9366 35.2479 79.8794 35.4515C79.8223 35.655 79.6937 35.7586 79.508 35.7586H74.4687C74.1759 35.7586 73.9866 35.6122 73.9044 35.3229L72.9009 32.3657C72.8652 32.28 72.8294 32.2086 72.7866 32.1479C72.7437 32.0872 72.6544 32.0586 72.5152 32.0586H67.0652C66.858 32.0586 66.7294 32.1515 66.6794 32.3407L65.6259 35.3764C65.5902 35.48 65.5259 35.5693 65.433 35.6479C65.3402 35.7265 65.1973 35.7622 65.008 35.7622H61.1009C60.908 35.7657 60.7687 35.6765 60.683 35.4943ZM71.2259 27.6907C71.483 27.6907 71.5616 27.5193 71.458 27.1765L69.9152 22.78C69.8794 22.6943 69.8294 22.6515 69.7616 22.6515C69.6937 22.6515 69.6402 22.6943 69.608 22.78L68.0402 27.1515C67.9044 27.5122 67.9902 27.6907 68.2973 27.6907H71.2259Z"
                                fill="#171044" />
                        </g>
                    </g>
                    <g id="Clip path group_7">
                        <mask id="mask6_968_771" style="mask-type:luminance" maskUnits="userSpaceOnUse" x="0" y="-36"
                            width="128" height="129">
                            <g id="SVGID_2__7">
                                <path id="Vector_14" d="M127.637 -35.3711H0.19043V92.0753H127.637V-35.3711Z"
                                    fill="white" />
                            </g>
                        </mask>
                        <g mask="url(#mask6_968_771)">
                            <path id="Vector_15"
                                d="M79.4551 17.2765C79.4551 17.105 79.5051 16.9622 79.6086 16.8515C79.7122 16.7407 79.8729 16.6836 80.0979 16.6836H95.4729C95.6944 16.6836 95.8586 16.7407 95.9622 16.8515C96.0658 16.9622 96.1158 17.105 96.1158 17.2765V20.3372C96.1158 20.6622 95.9265 20.8265 95.5515 20.8265H91.0015C90.7944 20.8265 90.6944 20.9122 90.6944 21.0836V35.2015C90.6944 35.58 90.5301 35.7657 90.2051 35.7657H85.3194C85.0122 35.7657 84.8551 35.5943 84.8551 35.2515V21.1872C84.8551 20.9479 84.7622 20.8265 84.5729 20.8265H80.0479C79.6551 20.8265 79.4586 20.6622 79.4586 20.3372V17.2765H79.4551Z"
                                fill="#171044" />
                        </g>
                    </g>
                    <g id="Clip path group_8">
                        <mask id="mask7_968_771" style="mask-type:luminance" maskUnits="userSpaceOnUse" x="0" y="-36"
                            width="128" height="129">
                            <g id="SVGID_2__8">
                                <path id="Vector_16" d="M127.637 -35.3711H0.19043V92.0753H127.637V-35.3711Z"
                                    fill="white" />
                            </g>
                        </mask>
                        <g mask="url(#mask7_968_771)">
                            <path id="Vector_17"
                                d="M108.901 20.8508C108.437 20.5579 107.701 20.4151 106.69 20.4151C105.73 20.4151 105.055 20.5544 104.658 20.8258C104.262 21.1008 104.065 21.4008 104.065 21.7258C104.065 21.8794 104.112 22.0401 104.208 22.2008C104.301 22.3651 104.469 22.5186 104.708 22.6651C104.948 22.8115 105.283 22.9365 105.712 23.0365L109.98 24.1436C111.59 24.5365 112.78 25.2401 113.54 26.2508C114.305 27.2615 114.683 28.4294 114.683 29.7472C114.683 31.0151 114.348 32.1222 113.68 33.0651C113.012 34.0079 112.062 34.7365 110.837 35.2508C109.612 35.7651 108.151 36.0222 106.451 36.0222C105.201 36.0222 104.012 35.8794 102.89 35.5972C101.769 35.3151 100.787 34.9151 99.9476 34.4008C99.1083 33.8865 98.4833 33.2936 98.069 32.6258C97.9655 32.4365 97.9226 32.2829 97.9405 32.1615C97.9583 32.0401 98.0512 31.9115 98.2226 31.7758L100.873 29.9508C101.112 29.7972 101.308 29.7329 101.462 29.7579C101.615 29.7829 101.744 29.8651 101.848 30.0008C102.226 30.4794 102.601 30.8758 102.98 31.1829C103.358 31.4901 103.79 31.7151 104.28 31.8508C104.769 31.9865 105.348 32.0579 106.015 32.0579C106.958 32.0579 107.712 31.9294 108.28 31.6722C108.844 31.4151 109.13 31.0472 109.13 30.5651C109.13 30.3579 109.069 30.1651 108.951 29.9865C108.83 29.8079 108.655 29.6472 108.423 29.5115C108.19 29.3758 107.887 29.2615 107.508 29.1758L103.601 28.2258C102.573 27.9686 101.68 27.5615 100.926 27.0044C100.173 26.4472 99.5905 25.7829 99.1762 25.0115C98.7655 24.2401 98.5583 23.4079 98.5583 22.5186C98.5583 21.4044 98.8797 20.3829 99.5226 19.4579C100.165 18.5329 101.083 17.7936 102.273 17.2472C103.465 16.6972 104.865 16.4258 106.476 16.4258C107.505 16.4258 108.487 16.5401 109.419 16.7722C110.355 17.0044 111.19 17.3258 111.926 17.7365C112.662 18.1472 113.23 18.6365 113.623 19.2008C113.708 19.3222 113.773 19.4436 113.815 19.5722C113.858 19.7008 113.794 19.8329 113.623 19.9722L110.819 22.0044C110.698 22.0901 110.587 22.1186 110.487 22.0936C110.383 22.0686 110.237 21.9686 110.051 21.7972C109.748 21.4579 109.362 21.1436 108.901 20.8508Z"
                                fill="#171044" />
                        </g>
                    </g>
                    <g id="Clip path group_9">
                        <mask id="mask8_968_771" style="mask-type:luminance" maskUnits="userSpaceOnUse" x="0" y="-36"
                            width="128" height="129">
                            <g id="SVGID_2__9">
                                <path id="Vector_18" d="M127.637 -35.3711H0.19043V92.0753H127.637V-35.3711Z"
                                    fill="white" />
                            </g>
                        </mask>
                        <g mask="url(#mask8_968_771)">
                            <path id="Vector_19"
                                d="M120.998 31.2915C120.351 31.7272 119.719 32.188 119.055 32.5987C114.858 35.1915 110.212 36.6094 105.373 37.5272C97.0833 39.0987 88.7011 39.2594 80.3083 39.0344C74.3226 38.8737 68.3404 38.5558 62.3618 38.2344C55.1547 37.8487 47.9547 37.2879 40.7404 36.9772C31.5833 36.5808 22.4154 36.438 13.3011 37.7594C12.0868 37.9344 10.8868 38.188 9.62256 38.2844C10.0083 38.1094 10.3833 37.9201 10.7761 37.7665C18.144 34.8594 25.8583 33.6058 33.7511 33.2129C41.7583 32.8129 49.7404 33.2951 57.7226 33.8201C67.4904 34.4665 77.2547 35.2558 87.0368 35.5308C98.3547 35.8487 109.565 34.788 120.38 31.1701C120.537 31.1165 120.715 31.1272 120.887 31.1094C120.923 31.1665 120.962 31.2308 120.998 31.2915Z"
                                fill="#FBAA19" />
                        </g>
                    </g>
                </g>
            </g>
            <defs>
                <clipPath id="clip0_968_771">
                    <rect width="127.619" height="48.5714" fill="white" transform="translate(0.19043 0.341797)" />
                </clipPath>
        </symbol>



        <symbol id="icon-padlock" viewBox="0 0 32 33">
            <path fill="#171044"
                d="M24.005 14.149V9.363a8.022 8.022 0 0 0-2.396-5.766c-1.493-1.486-3.447-2.3-5.517-2.3h-.102c-4.415.006-8.002 3.62-8.002 8.067v4.786c-1.666.199-2.883 1.595-2.883 3.287v10.751c0 1.826 1.461 3.332 3.287 3.332h15.217c1.826 0 3.287-1.506 3.287-3.332V17.437c-.006-1.685-1.224-3.088-2.889-3.287zM9.262 9.363h.006c0-3.742 3.018-6.804 6.727-6.804h.006a6.64 6.64 0 0 1 4.703 1.935 6.782 6.782 0 0 1 2.012 4.869v4.793h-1.41V9.363a5.4 5.4 0 0 0-1.595-3.876 5.195 5.195 0 0 0-3.671-1.525h-.038c-2.947 0-5.331 2.422-5.331 5.395v4.799h-1.41V9.363zm10.771 0v4.793H11.96V9.363c0-2.268 1.807-4.113 4.049-4.113h.038c1.038 0 2.038.416 2.774 1.153a4.129 4.129 0 0 1 1.211 2.96zm5.638 18.844c0 1.121-.91 2.031-2.031 2.031H8.417a2.032 2.032 0 0 1-2.031-2.031V17.469c0-1.121.91-2.031 2.031-2.031H23.64c1.121 0 2.031.91 2.031 2.031v10.738z"
                style="fill:var(--color1, #171044)" />
            <path fill="#171044"
                d="M18.214 22.44a2.299 2.299 0 0 0-2.217-1.672 2.312 2.312 0 0 0-2.313 2.313 2.3 2.3 0 0 0 1.672 2.217v1.794c0 .352.288.641.641.641s.641-.288.641-.641v-1.794a2.304 2.304 0 0 0 1.576-2.858zm-2.217 1.665a1.031 1.031 0 1 1-.002-2.062 1.031 1.031 0 0 1 .002 2.062z"
                style="fill:var(--color1, #171044)" />
        </symbol>


        <symbol id="icon-user" viewBox="0 0 32 32">
            <path
                d="M15.785 14.94c1.993 0 3.719-.715 5.129-2.125s2.125-3.136 2.125-5.129c0-1.993-.715-3.718-2.125-5.129S17.778.432 15.785.432c-1.993 0-3.719.715-5.129 2.125S8.531 5.693 8.531 7.686c0 1.993.715 3.719 2.125 5.129s3.136 2.125 5.129 2.125zm-3.88-11.135c1.082-1.082 2.351-1.608 3.881-1.608s2.799.526 3.881 1.608c1.082 1.082 1.608 2.352 1.608 3.881s-.526 2.799-1.608 3.881c-1.082 1.082-2.352 1.608-3.881 1.608s-2.798-.526-3.881-1.608c-1.082-1.082-1.608-2.352-1.608-3.881s.526-2.798 1.608-3.881zM28.478 23.591a18.022 18.022 0 0 0-.244-1.903 15 15 0 0 0-.468-1.913 9.412 9.412 0 0 0-.787-1.784 6.715 6.715 0 0 0-1.186-1.546 5.23 5.23 0 0 0-1.704-1.071 5.891 5.891 0 0 0-2.175-.394c-.307 0-.605.126-1.179.5-.353.23-.767.497-1.228.792-.395.251-.929.487-1.589.7-.644.208-1.298.314-1.944.314s-1.299-.106-1.944-.314c-.659-.213-1.194-.449-1.588-.7-.457-.292-.871-.559-1.229-.792-.574-.374-.871-.5-1.179-.5-.783 0-1.515.133-2.175.394a5.208 5.208 0 0 0-1.704 1.071 6.721 6.721 0 0 0-1.186 1.546 9.484 9.484 0 0 0-.787 1.785 15.043 15.043 0 0 0-.468 1.913 17.972 17.972 0 0 0-.244 1.904c-.04.575-.06 1.174-.06 1.778 0 1.572.5 2.845 1.485 3.784.973.926 2.261 1.396 3.827 1.396h14.502c1.566 0 2.854-.47 3.827-1.396.986-.938 1.486-2.211 1.486-3.784 0-.607-.021-1.205-.061-1.779zm-2.641 4.284c-.643.612-1.497.91-2.61.91H8.725c-1.114 0-1.968-.297-2.611-.909-.631-.6-.937-1.42-.937-2.505 0-.564.019-1.122.056-1.656.036-.525.111-1.101.221-1.714.109-.605.247-1.173.412-1.687a7.71 7.71 0 0 1 .64-1.451c.255-.448.548-.833.872-1.142.303-.29.684-.527 1.133-.705a4.04 4.04 0 0 1 1.39-.268c.062.033.172.096.35.212.363.236.781.506 1.243.801.521.332 1.193.632 1.995.891.82.265 1.656.4 2.487.4s1.667-.135 2.486-.399c.803-.259 1.474-.559 1.996-.892.473-.302.88-.564 1.242-.801.178-.116.288-.179.35-.212.507.014.974.104 1.39.268.449.178.831.415 1.133.705.323.309.617.694.872 1.142.267.47.483.958.64 1.451.165.515.303 1.082.412 1.687.11.614.184 1.191.221 1.714.037.533.056 1.09.057 1.656 0 1.085-.307 1.905-.938 2.505z" />
        </symbol>


        <symbol id="icon-envelope" viewBox="0 0 32 32">
            <path
                d="M5.315 9.274 13.05 16l-7.737 6.728A1.008 1.008 0 0 1 5 21.993V10.007c0-.289.121-.549.315-.733zm22.372-.002c.194.184.313.445.313.735v11.986c0 .289-.121.549-.315.733L19.95 16l7.737-6.728zm-8.485 7.379L26.5 23h-20l7.298-6.349L16.5 19l2.702-2.349zM6.004 8A2 2 0 0 0 4 9.994v12.012C4 23.107 4.89 24 6.004 24h20.993a2 2 0 0 0 2.004-1.994V9.994c0-1.101-.89-1.994-2.004-1.994H6.004zM16.5 17.7 6.5 9h20l-10 8.7z" />

        </symbol>


        <symbol id="icon-invisible" viewBox="0 0 32 32">
            <path d="m15.773 10.693 4.275 4.275.02-.224a4.076 4.076 0 0 0-4.072-4.072l-.224.02z" />
            <path
                d="M15.996 7.958a6.788 6.788 0 0 1 6.786 6.786c0 .875-.176 1.71-.482 2.477l3.97 3.97a16.113 16.113 0 0 0 4.662-6.447c-2.355-5.958-8.144-10.18-14.937-10.18-1.9 0-3.719.339-5.409.95l2.932 2.925a6.81 6.81 0 0 1 2.477-.482zM2.424 4.26l3.712 3.712a16.068 16.068 0 0 0-5.069 6.773c2.348 5.958 8.144 10.18 14.93 10.18 2.104 0 4.112-.407 5.952-1.147l.577.577 3.956 3.963 1.731-1.724L4.155 2.53 2.424 4.261zm7.506 7.499 2.097 2.097a4.31 4.31 0 0 0-.102.889 4.075 4.075 0 0 0 4.072 4.072c.305 0 .597-.041.882-.102l2.097 2.097a6.676 6.676 0 0 1-2.979.719 6.788 6.788 0 0 1-6.786-6.786c0-1.072.271-2.077.719-2.986z" />
        </symbol>


        <symbol id="icon-padlock1" viewBox="0 0 32 33">
            <path fill="#171044"
                d="M24.005 14.149V9.363a8.022 8.022 0 0 0-2.396-5.766c-1.493-1.486-3.447-2.3-5.517-2.3h-.102c-4.415.006-8.002 3.62-8.002 8.067v4.786c-1.666.199-2.883 1.595-2.883 3.287v10.751c0 1.826 1.461 3.332 3.287 3.332h15.217c1.826 0 3.287-1.506 3.287-3.332V17.437c-.006-1.685-1.224-3.088-2.889-3.287zM9.262 9.363h.006c0-3.742 3.018-6.804 6.727-6.804h.006a6.64 6.64 0 0 1 4.703 1.935 6.782 6.782 0 0 1 2.012 4.869v4.793h-1.41V9.363a5.4 5.4 0 0 0-1.595-3.876 5.195 5.195 0 0 0-3.671-1.525h-.038c-2.947 0-5.331 2.422-5.331 5.395v4.799h-1.41V9.363zm10.771 0v4.793H11.96V9.363c0-2.268 1.807-4.113 4.049-4.113h.038c1.038 0 2.038.416 2.774 1.153a4.129 4.129 0 0 1 1.211 2.96zm5.638 18.844c0 1.121-.91 2.031-2.031 2.031H8.417a2.032 2.032 0 0 1-2.031-2.031V17.469c0-1.121.91-2.031 2.031-2.031H23.64c1.121 0 2.031.91 2.031 2.031v10.738z"
                style="fill:var(--color1, #171044)" />
            <path fill="#171044"
                d="M18.214 22.44a2.299 2.299 0 0 0-2.217-1.672 2.312 2.312 0 0 0-2.313 2.313 2.3 2.3 0 0 0 1.672 2.217v1.794c0 .352.288.641.641.641s.641-.288.641-.641v-1.794a2.304 2.304 0 0 0 1.576-2.858zm-2.217 1.665a1.031 1.031 0 1 1-.002-2.062 1.031 1.031 0 0 1 .002 2.062z"
                style="fill:var(--color1, #171044)" />
        </symbol>
    </defs>
</svg>