<svg aria-hidden="true" xmlns="http://www.w3.org/2000/svg">
    <defs>
        <symbol id="logo" viewBox="0 0 256 99">
            <g clip-path="url(#a)">
                <mask id="b" style="mask-type:luminance" maskUnits="userSpaceOnUse" x="0" y="-71" width="255"
                    height="256">
                    <path d="M254.893-70.5H0v254.893h254.893V-70.5Z" fill="#fff" />
                </mask>
                <g mask="url(#b)">
                    <path
                        d="M21.386 70.586a.551.551 0 0 1-.336-.1c-.086-.064-.136-.171-.136-.321V60.072c0-.143.043-.25.136-.322.085-.071.2-.1.335-.1h2.443c.258 0 .393.122.393.372v2.986c0 .135.072.2.207.2h11.265c.3 0 .45.107.45.321v3.207c0 .2-.136.3-.407.3h-11.23c-.192 0-.285.064-.285.186v2.971c0 .257-.128.386-.393.386h-2.442v.007Z"
                        fill="#fff" stroke="#171044" stroke-width=".714" stroke-miterlimit="10" />
                </g>
                <mask id="c" style="mask-type:luminance" maskUnits="userSpaceOnUse" x="0" y="-71" width="255"
                    height="256">
                    <path d="M254.893-70.5H0v254.893h254.893V-70.5Z" fill="#fff" />
                </mask>
                <g mask="url(#c)">
                    <path
                        d="M30.043 53.357c0 .179.1.272.307.272h5.193c.4 0 .593.185.593.557V57c0 .178-.043.3-.122.364-.079.065-.214.093-.393.093H21.385c-.314 0-.47-.107-.47-.321v-3.208c0-.2.142-.307.428-.307H26.1c.271 0 .414-.1.414-.307v-2.836c0-.2-.136-.3-.414-.3h-4.757c-.286 0-.429-.1-.429-.307v-3.207c0-.214.157-.321.471-.321h14.236c.179 0 .307.028.393.093.086.064.121.185.121.364v2.814c0 .372-.2.557-.592.557H30.35c-.207 0-.307.093-.307.272v2.914Z"
                        fill="#fff" stroke="#171044" stroke-width=".714" stroke-miterlimit="10" />
                </g>
                <mask id="d" style="mask-type:luminance" maskUnits="userSpaceOnUse" x="0" y="-71" width="255"
                    height="256">
                    <path d="M254.893-70.5H0v254.893h254.893V-70.5Z" fill="#fff" />
                </mask>
                <g mask="url(#d)">
                    <path
                        d="M20.914 43.436v-9.108c0-.2.143-.307.429-.307l2.378.015c.372 0 .557.15.557.435v5.065c0 .257.129.385.393.385h1.743c.286 0 .429-.1.429-.307V36.58c0-.236.135-.358.407-.358h2.543c.093 0 .178.022.242.072.072.043.1.121.1.236v3.121c0 .178.093.271.286.271h2.05c.193 0 .286-.071.286-.2v-5.485c0-.25.129-.372.393-.372h2.521c.122 0 .229.029.315.093.085.064.135.164.135.314V43.3c0 .307-.171.457-.514.457H21.386c-.315 0-.472-.107-.472-.321Z"
                        fill="#fff" stroke="#171044" stroke-width=".714" stroke-miterlimit="10" />
                </g>
                <mask id="e" style="mask-type:luminance" maskUnits="userSpaceOnUse" x="0" y="-71" width="255"
                    height="256">
                    <path d="M254.893-70.5H0v254.893h254.893V-70.5Z" fill="#fff" />
                </mask>
                <g mask="url(#e)">
                    <path
                        d="M42.428 71.436a1.09 1.09 0 0 1-.335-.8V34.943c0-.378.121-.693.357-.95.243-.257.55-.386.928-.386h15.33c5.313 0 9.356.85 12.135 2.543 2.778 1.7 4.164 4.207 4.164 7.536 0 1.786-.479 3.3-1.443 4.55-.957 1.25-2.728 2.479-5.3 3.679-.071.035-.1.092-.1.178s.036.143.1.179c2.843 1.064 4.836 2.3 5.965 3.7 1.128 1.407 1.7 3.207 1.7 5.4 0 3.528-1.343 6.143-4.036 7.843-2.693 1.7-6.814 2.542-12.372 2.542H43.28c-.343.015-.63-.092-.85-.321Zm17.1-22.907c.615 0 1.165-.086 1.643-.257a3.527 3.527 0 0 0 1.236-.743c.343-.329.607-.693.8-1.107.186-.415.286-.872.286-1.386 0-1.129-.422-2.029-1.257-2.7-.843-.671-1.857-1-3.057-1h-4.215c-.785 0-1.185.343-1.185 1.029v5.042c0 .758.292 1.129.87 1.129h4.88v-.007Zm-.257 15.528c1.508 0 2.643-.414 3.393-1.235.757-.822 1.129-1.729 1.129-2.729 0-.721-.179-1.357-.543-1.9-.357-.55-.857-.978-1.493-1.286-.636-.307-1.378-.464-2.236-.464h-4.578c-.786 0-1.186.357-1.186 1.079v5.4c0 .757.293 1.128.872 1.128h4.642v.007Z"
                        fill="#171044" />
                </g>
                <mask id="f" style="mask-type:luminance" maskUnits="userSpaceOnUse" x="0" y="-71" width="255"
                    height="256">
                    <path d="M254.893-70.5H0v254.893h254.893V-70.5Z" fill="#fff" />
                </mask>
                <g mask="url(#f)">
                    <path
                        d="M89.772 69.892c-2.779-1.592-4.922-3.857-6.429-6.785-1.507-2.929-2.264-6.372-2.264-10.315 0-3.978.772-7.442 2.314-10.385 1.543-2.95 3.7-5.236 6.479-6.864 2.778-1.63 6.014-2.443 9.721-2.443 3.7 0 6.936.814 9.693 2.442 2.757 1.629 4.9 3.915 6.429 6.865 1.528 2.95 2.286 6.414 2.286 10.386 0 3.942-.758 7.37-2.265 10.285-1.507 2.915-3.643 5.179-6.4 6.786-2.757 1.614-6.007 2.414-9.743 2.414-3.771.007-7.043-.793-9.821-2.386Zm14.579-8.2c.942-1.714 1.414-4.628 1.414-8.742 0-4.25-.479-7.3-1.443-9.158-.957-1.85-2.536-2.778-4.729-2.778-2.228 0-3.828.928-4.807 2.778-.978 1.85-1.464 4.908-1.464 9.158 0 4.114.471 7.028 1.414 8.742.943 1.715 2.564 2.572 4.857 2.572 2.229 0 3.815-.857 4.758-2.571Z"
                        fill="#171044" />
                </g>
                <mask id="g" style="mask-type:luminance" maskUnits="userSpaceOnUse" x="0" y="-71" width="255"
                    height="256">
                    <path d="M254.893-70.5H0v254.893h254.893V-70.5Z" fill="#fff" />
                </mask>
                <g mask="url(#g)">
                    <path
                        d="M120.986 71.229c-.172-.357-.157-.814.05-1.364l12.443-35.072c.171-.414.357-.714.564-.9.207-.186.528-.286.978-.286h10.136c.893 0 1.507.465 1.85 1.386l12.343 35.022c.136.342.143.721.029 1.128-.115.407-.372.614-.743.614h-10.079c-.586 0-.964-.292-1.128-.871l-2.008-5.914a2.21 2.21 0 0 0-.228-.436c-.086-.121-.264-.179-.543-.179h-10.9c-.414 0-.671.186-.771.565l-2.108 6.071c-.071.207-.2.386-.385.543-.186.157-.472.229-.85.229h-7.815c-.385.007-.664-.172-.835-.536Zm21.085-15.607c.515 0 .672-.343.465-1.029L139.45 45.8c-.071-.171-.171-.257-.307-.257-.136 0-.243.086-.307.257l-3.136 8.743c-.271.722-.1 1.079.514 1.079h5.857Z"
                        fill="#171044" />
                </g>
                <mask id="h" style="mask-type:luminance" maskUnits="userSpaceOnUse" x="0" y="-71" width="255"
                    height="256">
                    <path d="M254.893-70.5H0v254.893h254.893V-70.5Z" fill="#fff" />
                </mask>
                <g mask="url(#h)">
                    <path
                        d="M158.529 34.793c0-.343.1-.628.307-.85.207-.221.529-.336.979-.336h30.75c.442 0 .771.115.978.336.207.222.307.507.307.85v6.122c0 .65-.378.978-1.128.978h-9.1c-.415 0-.615.172-.615.514v28.236c0 .757-.328 1.129-.978 1.129h-9.772c-.614 0-.928-.343-.928-1.029V42.615c0-.479-.186-.722-.564-.722h-9.05c-.786 0-1.179-.328-1.179-.978v-6.122h-.007Z"
                        fill="#171044" />
                </g>
                <mask id="i" style="mask-type:luminance" maskUnits="userSpaceOnUse" x="0" y="-71" width="255"
                    height="256">
                    <path d="M254.893-70.5H0v254.893h254.893V-70.5Z" fill="#fff" />
                </mask>
                <g mask="url(#i)">
                    <path
                        d="M217.421 41.943c-.928-.586-2.4-.872-4.421-.872-1.921 0-3.271.279-4.064.822-.793.55-1.186 1.15-1.186 1.8 0 .307.093.628.286.95.185.328.521.636 1 .928.478.293 1.15.543 2.007.743l8.536 2.215c3.221.785 5.6 2.192 7.121 4.214 1.529 2.021 2.286 4.357 2.286 6.993 0 2.535-.672 4.75-2.007 6.635-1.336 1.886-3.236 3.343-5.686 4.372-2.45 1.028-5.372 1.543-8.772 1.543-2.5 0-4.878-.286-7.121-.85-2.243-.565-4.207-1.365-5.886-2.393-1.678-1.029-2.928-2.215-3.757-3.55-.207-.379-.293-.686-.257-.929.036-.243.221-.5.564-.771l5.3-3.65c.479-.307.872-.436 1.179-.386.307.05.564.214.771.486.757.957 1.507 1.75 2.265 2.364a7.086 7.086 0 0 0 2.6 1.336c.978.271 2.135.414 3.471.414 1.886 0 3.393-.257 4.529-.771 1.128-.515 1.7-1.25 1.7-2.215 0-.414-.122-.8-.358-1.157-.242-.357-.592-.678-1.057-.95-.464-.271-1.071-.5-1.828-.671l-7.815-1.9c-2.057-.514-3.842-1.329-5.35-2.443-1.507-1.114-2.671-2.443-3.5-3.986a10.462 10.462 0 0 1-1.235-4.986c0-2.228.643-4.27 1.928-6.12 1.286-1.85 3.122-3.33 5.5-4.422 2.386-1.1 5.186-1.643 8.407-1.643 2.058 0 4.022.228 5.886.693 1.872.464 3.543 1.107 5.014 1.928 1.472.822 2.608 1.8 3.393 2.929.172.243.3.486.386.743.086.257-.043.521-.386.8l-5.607 4.064c-.243.171-.464.228-.664.178-.207-.05-.5-.25-.872-.592-.607-.679-1.378-1.307-2.3-1.893Z"
                        fill="#171044" />
                </g>
                <mask id="j" style="mask-type:luminance" maskUnits="userSpaceOnUse" x="0" y="-71" width="255"
                    height="256">
                    <path d="M254.893-70.5H0v254.893h254.893V-70.5Z" fill="#fff" />
                </mask>
                <g mask="url(#j)">
                    <path
                        d="M241.614 62.828c-1.293.872-2.557 1.793-3.885 2.614-8.393 5.186-17.686 8.022-27.365 9.858-16.578 3.142-33.343 3.464-50.128 3.014-11.972-.322-23.936-.957-35.893-1.6-14.414-.772-28.815-1.893-43.243-2.514-18.314-.793-36.65-1.079-54.879 1.564-2.428.35-4.828.857-7.357 1.05.772-.35 1.522-.729 2.307-1.036 14.736-5.814 30.165-8.321 45.95-9.107 16.015-.8 31.979.164 47.943 1.214 19.536 1.293 39.065 2.872 58.629 3.422 22.636.635 45.057-1.486 66.686-8.722.314-.107.671-.085 1.014-.121.071.114.15.243.221.364Z"
                        fill="#FBAA19" />
                </g>
            </g>
            <defs>
                <clipPath id="a">
                    <path fill="#fff" transform="translate(0 .929)" d="M0 0h255.238v97.143H0z" />
                </clipPath>
            </defs>
        </symbol>


        <symbol id="share" viewBox="0 0 37 37">
            <path
                d="M.238 18.5c0-9.942 8.06-18 18-18 9.941 0 18 8.058 18 18 0 9.941-8.059 18-18 18-9.94 0-18-8.059-18-18Z" />
            <path
                d="M10.867 22.468a3.904 3.904 0 1 0 0-7.808 3.904 3.904 0 0 0 0 7.808ZM22.785 15.528a3.904 3.904 0 1 0 0-7.808 3.904 3.904 0 0 0 0 7.808ZM22.785 29.28a3.904 3.904 0 1 0 0-7.808 3.904 3.904 0 0 0 0 7.808Z"
                fill="#fff" />
            <path d="m11.396 19.339-1.056-1.814 11.918-6.94 1.056 1.814-11.918 6.94Z" fill="#fff" />
            <path d="m22.257 26.28-11.918-6.94 1.056-1.814 11.918 6.94-1.056 1.813Z" fill="#fff" />
        </symbol>



        <symbol id="instagram" viewBox="0 0 37 37">
            <path d="M18.238 12.194a6.306 6.306 0 1 0 0 12.612 6.306 6.306 0 0 0 0-12.613Z" />
            <path fill-rule="evenodd" clip-rule="evenodd"
                d="M1.238 17.952c0-6.855 0-10.282 1.746-12.684a9.14 9.14 0 0 1 2.022-2.022C7.408 1.5 10.836 1.5 17.69 1.5h1.097c6.854 0 10.281 0 12.684 1.746a9.14 9.14 0 0 1 2.022 2.022c1.745 2.402 1.745 5.83 1.745 12.684v1.096c0 6.855 0 10.282-1.745 12.684a9.14 9.14 0 0 1-2.022 2.023C29.068 35.5 25.64 35.5 18.787 35.5H17.69c-6.855 0-10.282 0-12.684-1.745a9.14 9.14 0 0 1-2.022-2.023c-1.746-2.402-1.746-5.83-1.746-12.684v-1.096Zm7.586.548a9.414 9.414 0 1 1 18.828 0 9.414 9.414 0 0 1-18.828 0Zm19.4-12.065a2.125 2.125 0 1 0 0 4.25 2.125 2.125 0 0 0 0-4.25Z" />
        </symbol>



        <symbol id="youtobe" viewBox="0 0 37 37">
            <g clip-path="url(#a)">
                <path d="m15.742 21.404 4.993-2.896-4.993-2.911v5.807Z" />
                <path
                    d="M18.238.5a18 18 0 1 0 0 36 18 18 0 0 0 0-36Zm9.474 21.186a3.585 3.585 0 0 1-3.583 3.585H12.348a3.584 3.584 0 0 1-3.583-3.585v-6.371a3.584 3.584 0 0 1 3.583-3.586h11.78a3.584 3.584 0 0 1 3.584 3.586v6.37Z" />
            </g>
            <defs>
                <clipPath id="a">
                    <path fill="#fff" transform="translate(.238 .5)" d="M0 0h36v36H0z" />
                </clipPath>
            </defs>
        </symbol>



        <symbol id="facebook" viewBox="0 0 37 37">
            <path
                d="M36.238 18.61c0-10.002-8.06-18.11-18-18.11s-18 8.108-18 18.11c0 9.039 6.582 16.53 15.188 17.889V23.843h-4.57v-5.236h4.57V14.62c0-4.538 2.688-7.046 6.8-7.046 1.967 0 4.028.354 4.028.354v4.457h-2.27c-2.237 0-2.935 1.396-2.935 2.828v3.395h4.992l-.798 5.237H21.05V36.5c8.607-1.36 15.19-8.852 15.19-17.89Z" />
        </symbol>

        <symbol id="icon-arrow-right" viewBox="0 0 24 24">
            <path
                d="M11.293 5.707 16.586 11H5a1 1 0 0 0 0 2h11.586l-5.293 5.293a.999.999 0 1 0 1.414 1.414l7-7a1.006 1.006 0 0 0 0-1.414l-7-7a.999.999 0 1 0-1.414 1.414z" />
        </symbol>
        <symbol id="icon-arrow-left" viewBox="0 0 24 24">
            <path
                d="M12.707 18.293 7.414 13H19a1 1 0 0 0 0-2H7.414l5.293-5.293a.999.999 0 1 0-1.414-1.414l-7 7a.998.998 0 0 0 0 1.414l7 7a.999.999 0 1 0 1.414-1.414z" />
        </symbol>

        <symbol id="logo-footer" viewBox="0 0 84 32">
            <path fill="#fff" style="fill: var(--color1, #fff)" d="M83.355-23.099h-83.23v83.23h83.23v-83.23z"></path>
            <path fill="#171044" style="fill: var(--color2, #171044)"
                d="M13.979 23.248c-0.072-0.072-0.11-0.159-0.11-0.261v-11.655c0-0.124 0.040-0.226 0.117-0.31 0.079-0.084 0.18-0.126 0.303-0.126h5.005c1.735 0 3.055 0.278 3.963 0.83 0.907 0.555 1.36 1.374 1.36 2.461 0 0.583-0.156 1.078-0.471 1.486-0.313 0.408-0.891 0.809-1.731 1.201-0.023 0.012-0.033 0.030-0.033 0.058s0.012 0.047 0.033 0.058c0.928 0.348 1.579 0.751 1.948 1.208 0.369 0.459 0.555 1.047 0.555 1.763 0 1.152-0.439 2.006-1.318 2.561s-2.225 0.83-4.040 0.83h-5.304c-0.112 0.005-0.205-0.030-0.278-0.105zM19.562 15.768c0.201 0 0.38-0.028 0.536-0.084s0.292-0.138 0.404-0.243c0.112-0.107 0.198-0.226 0.261-0.362 0.061-0.135 0.093-0.285 0.093-0.452 0-0.369-0.138-0.662-0.41-0.882-0.275-0.219-0.606-0.327-0.998-0.327h-1.376c-0.257 0-0.387 0.112-0.387 0.336v1.647c0 0.247 0.096 0.369 0.285 0.369h1.593v-0.002zM19.478 20.838c0.492 0 0.863-0.135 1.108-0.404 0.247-0.268 0.369-0.564 0.369-0.891 0-0.236-0.058-0.443-0.177-0.62-0.117-0.18-0.28-0.32-0.487-0.42s-0.45-0.152-0.73-0.152h-1.495c-0.257 0-0.387 0.117-0.387 0.352v1.763c0 0.247 0.096 0.369 0.285 0.369h1.516v0.002z">
            </path>
            <path fill="#171044" style="fill: var(--color2, #171044)"
                d="M29.438 22.744c-0.907-0.52-1.607-1.259-2.099-2.216s-0.739-2.081-0.739-3.368c0-1.299 0.252-2.43 0.756-3.391 0.504-0.963 1.208-1.71 2.115-2.241s1.964-0.798 3.174-0.798c1.208 0 2.265 0.266 3.165 0.798s1.6 1.278 2.099 2.241c0.499 0.963 0.746 2.094 0.746 3.391 0 1.287-0.247 2.407-0.739 3.359s-1.19 1.691-2.090 2.216c-0.9 0.527-1.962 0.788-3.181 0.788-1.231 0.002-2.3-0.259-3.207-0.779zM34.198 20.066c0.308-0.56 0.462-1.511 0.462-2.855 0-1.388-0.156-2.384-0.471-2.99-0.313-0.604-0.828-0.907-1.544-0.907-0.728 0-1.25 0.303-1.57 0.907s-0.478 1.602-0.478 2.99c0 1.343 0.154 2.295 0.462 2.855s0.837 0.84 1.586 0.84c0.728 0 1.246-0.28 1.553-0.84z">
            </path>
            <path fill="#171044" style="fill: var(--color2, #171044)"
                d="M39.63 23.18c-0.056-0.117-0.051-0.266 0.016-0.445l4.063-11.452c0.056-0.135 0.117-0.233 0.184-0.294s0.173-0.093 0.32-0.093h3.31c0.292 0 0.492 0.152 0.604 0.453l4.030 11.436c0.044 0.112 0.047 0.236 0.009 0.369s-0.121 0.201-0.243 0.201h-3.291c-0.191 0-0.315-0.096-0.369-0.285l-0.655-1.931c-0.023-0.056-0.047-0.103-0.075-0.142s-0.086-0.058-0.177-0.058h-3.559c-0.135 0-0.219 0.061-0.252 0.184l-0.688 1.982c-0.023 0.068-0.065 0.126-0.126 0.177s-0.154 0.075-0.278 0.075h-2.552c-0.126 0.002-0.217-0.056-0.273-0.175zM46.515 18.084c0.168 0 0.219-0.112 0.152-0.336l-1.008-2.871c-0.023-0.056-0.056-0.084-0.1-0.084s-0.079 0.028-0.1 0.084l-1.024 2.855c-0.089 0.236-0.033 0.352 0.168 0.352h1.913z">
            </path>
            <path fill="#171044" style="fill: var(--color2, #171044)"
                d="M51.889 11.283c0-0.112 0.033-0.205 0.1-0.278s0.173-0.11 0.32-0.11h10.041c0.145 0 0.252 0.037 0.32 0.11s0.1 0.166 0.1 0.278v1.999c0 0.212-0.124 0.32-0.369 0.32h-2.971c-0.135 0-0.201 0.056-0.201 0.168v9.22c0 0.247-0.107 0.368-0.32 0.368h-3.191c-0.201 0-0.303-0.112-0.303-0.336v-9.185c0-0.156-0.061-0.236-0.184-0.236h-2.955c-0.257 0-0.385-0.107-0.385-0.32v-1.999h-0.002z">
            </path>
            <path fill="#171044" style="fill: var(--color2, #171044)"
                d="M71.119 13.617c-0.303-0.191-0.784-0.285-1.444-0.285-0.627 0-1.068 0.091-1.327 0.268-0.259 0.18-0.387 0.376-0.387 0.588 0 0.1 0.031 0.205 0.093 0.31 0.061 0.107 0.17 0.208 0.327 0.303s0.376 0.177 0.656 0.243l2.787 0.723c1.051 0.257 1.829 0.716 2.325 1.376 0.5 0.66 0.746 1.423 0.746 2.283 0 0.828-0.219 1.551-0.655 2.167s-1.057 1.092-1.857 1.427-1.754 0.504-2.864 0.504c-0.816 0-1.593-0.093-2.326-0.278s-1.373-0.445-1.922-0.781c-0.548-0.336-0.956-0.723-1.227-1.159-0.068-0.124-0.096-0.224-0.084-0.303s0.072-0.163 0.184-0.252l1.731-1.192c0.156-0.1 0.284-0.142 0.385-0.126s0.184 0.070 0.252 0.159c0.247 0.313 0.492 0.571 0.739 0.772s0.529 0.348 0.849 0.436c0.319 0.089 0.697 0.135 1.133 0.135 0.616 0 1.108-0.084 1.479-0.252 0.368-0.168 0.555-0.408 0.555-0.723 0-0.135-0.040-0.261-0.117-0.378-0.079-0.117-0.193-0.222-0.345-0.31s-0.35-0.163-0.598-0.219l-2.552-0.62c-0.671-0.168-1.255-0.434-1.747-0.798s-0.872-0.798-1.143-1.302c-0.268-0.504-0.404-1.047-0.404-1.628 0-0.728 0.21-1.395 0.63-1.999s1.019-1.087 1.796-1.444c0.778-0.359 1.693-0.536 2.745-0.536 0.672 0 1.313 0.075 1.922 0.226 0.611 0.152 1.157 0.362 1.637 0.63s0.852 0.588 1.108 0.956c0.055 0.079 0.098 0.159 0.125 0.243s-0.014 0.17-0.125 0.261l-1.831 1.327c-0.079 0.056-0.151 0.075-0.217 0.058-0.068-0.016-0.163-0.082-0.285-0.194-0.198-0.222-0.45-0.427-0.751-0.618z">
            </path>
            <path fill="#fbaa19" style="fill: var(--color3, #fbaa19)"
                d="M79.019 20.435c-0.423 0.285-0.835 0.585-1.269 0.854-2.741 1.693-5.775 2.619-8.935 3.219-5.414 1.026-10.888 1.131-16.369 0.984-3.909-0.105-7.816-0.313-11.72-0.522-4.707-0.252-9.409-0.618-14.12-0.821-5.98-0.259-11.967-0.352-17.92 0.511-0.793 0.114-1.577 0.28-2.402 0.343 0.252-0.114 0.497-0.238 0.753-0.338 4.812-1.898 9.85-2.717 15.004-2.974 5.229-0.261 10.442 0.054 15.655 0.397 6.379 0.422 12.756 0.938 19.144 1.117 7.391 0.208 14.712-0.485 21.775-2.848 0.103-0.035 0.219-0.028 0.331-0.040 0.023 0.037 0.049 0.079 0.073 0.119z">
            </path>
        </symbol>
    </defs>
</svg>