<svg width="15" height="15" viewBox="0 0 15 15" fill="none" xmlns="http://www.w3.org/2000/svg">
    <g clip-path="url(#clip0_983_3506)">
        <path
            d="M7.39355 4.94704L9.39765 6.95113L9.40719 6.84616C9.40719 5.79321 8.55148 4.9375 7.49853 4.9375L7.39355 4.94704Z"
            fill="#151515" fill-opacity="0.4" />
        <path
            d="M7.49819 3.66476C9.25415 3.66476 10.6793 5.0899 10.6793 6.84586C10.6793 7.25622 10.5966 7.6475 10.4534 8.00695L12.3144 9.86789C13.2751 9.06626 14.0322 8.02923 14.4998 6.84586C13.396 4.05287 10.6825 2.07422 7.49821 2.07422C6.6075 2.07422 5.75498 2.23326 4.96289 2.51956L6.33712 3.8906C6.69655 3.75065 7.08782 3.66476 7.49819 3.66476Z"
            fill="#151515" fill-opacity="0.4" />
        <path
            d="M1.13621 1.9313L2.58679 3.38188L2.87628 3.67137C1.82652 4.49209 0.996251 5.58321 0.5 6.84609C1.60067 9.63908 4.31731 11.6177 7.49842 11.6177C8.48457 11.6177 9.42616 11.4269 10.2882 11.0801L10.5587 11.3505L12.4132 13.2083L13.2244 12.4003L1.94739 1.12012L1.13621 1.9313ZM4.65452 5.44642L5.63748 6.42938C5.60885 6.56617 5.58976 6.70294 5.58976 6.84609C5.58976 7.89904 6.44547 8.75475 7.49842 8.75475C7.64157 8.75475 7.77837 8.73566 7.91197 8.70703L8.89493 9.68999C8.47183 9.89994 8.00105 10.0272 7.49842 10.0272C5.74245 10.0272 4.31731 8.60205 4.31731 6.84609C4.31731 6.34349 4.44457 5.87267 4.65452 5.44642Z"
            fill="#151515" fill-opacity="0.4" />
    </g>
    <defs>
        <clipPath id="clip0_983_3506">
            <rect width="14" height="14" fill="white" transform="translate(0.5 0.164062)" />
        </clipPath>
    </defs>
</svg>