<svg xmlns="http://www.w3.org/2000/svg" width="15" height="15" fill="none"><g fill="#151515" fill-opacity=".4" clip-path="url(#a)"><path d="m7.394 4.947 2.004 2.004.01-.105a1.91 1.91 0 0 0-1.91-1.909l-.104.01Z"/><path d="M7.498 3.665a3.182 3.182 0 0 1 3.181 3.18c0 .411-.082.803-.226 1.162l1.861 1.86A7.555 7.555 0 0 0 14.5 6.847c-1.104-2.793-3.818-4.772-7.002-4.772a7.44 7.44 0 0 0-2.535.446l1.374 1.37c.36-.14.75-.225 1.161-.225ZM1.136 1.931l1.45 1.45.29.29A7.536 7.536 0 0 0 .5 6.846a7.524 7.524 0 0 0 6.998 4.772c.987 0 1.928-.191 2.79-.538l.27.27 1.855 1.858.811-.808L1.947 1.12l-.81.811Zm3.519 3.515.982.983a1.91 1.91 0 0 0 1.86 2.325c.145 0 .281-.018.415-.047l.983.983a3.13 3.13 0 0 1-1.397.337 3.182 3.182 0 0 1-3.18-3.18c0-.504.127-.974.337-1.4Z"/></g><defs><clipPath id="a"><path fill="#fff" d="M.5.164h14v14H.5z"/></clipPath></defs></svg>