<svg width="128" height="49" viewBox="0 0 128 49" fill="none" xmlns="http://www.w3.org/2000/svg">
<g clip-path="url(#clip0_1989_431)">
<mask id="mask0_1989_431" style="mask-type:luminance" maskUnits="userSpaceOnUse" x="0" y="-36" width="128" height="128">
<path d="M127.446 -35.7148H0V91.7319H127.446V-35.7148Z" fill="white"/>
</mask>
<g mask="url(#mask0_1989_431)">
<path d="M10.6927 34.8292C10.6249 34.8292 10.5677 34.8113 10.5249 34.7792C10.482 34.7471 10.457 34.6935 10.457 34.6185V29.572C10.457 29.5006 10.4785 29.447 10.5249 29.4113C10.5677 29.3756 10.6249 29.3613 10.6927 29.3613H11.9142C12.0427 29.3613 12.1106 29.422 12.1106 29.547V31.0399C12.1106 31.1078 12.1463 31.1399 12.2142 31.1399H17.8463C17.9963 31.1399 18.0713 31.1935 18.0713 31.3006V32.9042C18.0713 33.0042 18.0035 33.0542 17.8677 33.0542H12.2535C12.157 33.0542 12.1106 33.0863 12.1106 33.147V34.6328C12.1106 34.7613 12.0463 34.8256 11.9142 34.8256H10.6927V34.8292Z" stroke="#171044" stroke-width="0.357143" stroke-miterlimit="10"/>
</g>
<mask id="mask1_1989_431" style="mask-type:luminance" maskUnits="userSpaceOnUse" x="0" y="-36" width="128" height="128">
<path d="M127.446 -35.7148H0V91.7319H127.446V-35.7148Z" fill="white"/>
</mask>
<g mask="url(#mask1_1989_431)">
<path d="M15.0213 26.2142C15.0213 26.3035 15.0713 26.3499 15.1749 26.3499H17.7713C17.9713 26.3499 18.0677 26.4428 18.0677 26.6285V28.0356C18.0677 28.1249 18.0463 28.1856 18.007 28.2178C17.9677 28.2499 17.8999 28.2642 17.8106 28.2642H10.6927C10.5356 28.2642 10.457 28.2106 10.457 28.1035V26.4999C10.457 26.3999 10.5285 26.3463 10.6713 26.3463H13.0499C13.1856 26.3463 13.257 26.2963 13.257 26.1928V24.7749C13.257 24.6749 13.1892 24.6249 13.0499 24.6249H10.6713C10.5285 24.6249 10.457 24.5749 10.457 24.4713V22.8677C10.457 22.7606 10.5356 22.707 10.6927 22.707H17.8106C17.8999 22.707 17.9642 22.7213 18.007 22.7535C18.0499 22.7856 18.0677 22.8463 18.0677 22.9356V24.3427C18.0677 24.5285 17.9677 24.6213 17.7713 24.6213H15.1749C15.0713 24.6213 15.0213 24.6678 15.0213 24.757V26.2142Z" stroke="#171044" stroke-width="0.357143" stroke-miterlimit="10"/>
</g>
<mask id="mask2_1989_431" style="mask-type:luminance" maskUnits="userSpaceOnUse" x="0" y="-36" width="128" height="128">
<path d="M127.446 -35.7148H0V91.7319H127.446V-35.7148Z" fill="white"/>
</mask>
<g mask="url(#mask2_1989_431)">
<path d="M10.457 21.2525V16.6989C10.457 16.5989 10.5285 16.5454 10.6713 16.5454L11.8606 16.5525C12.0463 16.5525 12.1392 16.6275 12.1392 16.7704V19.3025C12.1392 19.4311 12.2035 19.4954 12.3356 19.4954H13.207C13.3499 19.4954 13.4213 19.4454 13.4213 19.3418V17.8239C13.4213 17.7061 13.4892 17.6454 13.6249 17.6454H14.8963C14.9427 17.6454 14.9856 17.6561 15.0177 17.6811C15.0535 17.7025 15.0677 17.7418 15.0677 17.7989V19.3597C15.0677 19.4489 15.1142 19.4954 15.2106 19.4954H16.2356C16.332 19.4954 16.3785 19.4597 16.3785 19.3954V16.6525C16.3785 16.5275 16.4427 16.4668 16.5749 16.4668H17.8356C17.8963 16.4668 17.9499 16.4811 17.9927 16.5132C18.0356 16.5454 18.0606 16.5954 18.0606 16.6704V21.1847C18.0606 21.3382 17.9749 21.4132 17.8035 21.4132H10.6927C10.5356 21.4132 10.457 21.3597 10.457 21.2525Z" stroke="#171044" stroke-width="0.357143" stroke-miterlimit="10"/>
</g>
<mask id="mask3_1989_431" style="mask-type:luminance" maskUnits="userSpaceOnUse" x="0" y="-36" width="128" height="128">
<path d="M127.446 -35.7148H0V91.7319H127.446V-35.7148Z" fill="white"/>
</mask>
<g mask="url(#mask3_1989_431)">
<path d="M21.2138 35.2542C21.103 35.1435 21.0459 35.0113 21.0459 34.8542V17.0077C21.0459 16.8184 21.1066 16.6613 21.2245 16.5327C21.3459 16.4041 21.4995 16.3398 21.6888 16.3398H29.353C32.0102 16.3398 34.0316 16.7648 35.4209 17.6113C36.8102 18.4613 37.503 19.7149 37.503 21.3791C37.503 22.272 37.2638 23.0291 36.7816 23.6541C36.303 24.2791 35.4173 24.8934 34.1316 25.4934C34.0959 25.5113 34.0816 25.5399 34.0816 25.5827C34.0816 25.6256 34.0995 25.6542 34.1316 25.672C35.553 26.2042 36.5495 26.822 37.1138 27.522C37.678 28.2256 37.9638 29.1256 37.9638 30.222C37.9638 31.9863 37.2923 33.2935 35.9459 34.1435C34.5995 34.9935 32.5388 35.4149 29.7602 35.4149H21.6388C21.4673 35.422 21.3245 35.3685 21.2138 35.2542ZM29.7638 23.8006C30.0709 23.8006 30.3459 23.7577 30.5852 23.672C30.8245 23.5863 31.0316 23.4613 31.203 23.3006C31.3745 23.1363 31.5066 22.9541 31.603 22.747C31.6959 22.5399 31.7459 22.3113 31.7459 22.0541C31.7459 21.4899 31.5352 21.0399 31.1173 20.7041C30.6959 20.3684 30.1888 20.2041 29.5888 20.2041H27.4816C27.0888 20.2041 26.8888 20.3756 26.8888 20.7184V23.2399C26.8888 23.6184 27.0352 23.8041 27.3245 23.8041H29.7638V23.8006ZM29.6352 31.5649C30.3888 31.5649 30.9566 31.3577 31.3316 30.947C31.7102 30.5363 31.8959 30.0827 31.8959 29.5827C31.8959 29.222 31.8066 28.9042 31.6245 28.6327C31.4459 28.3577 31.1959 28.1434 30.878 27.9899C30.5602 27.8363 30.1888 27.7577 29.7602 27.7577H27.4709C27.078 27.7577 26.878 27.9363 26.878 28.297V30.997C26.878 31.3756 27.0245 31.5613 27.3138 31.5613H29.6352V31.5649Z" fill="#171044"/>
</g>
<mask id="mask4_1989_431" style="mask-type:luminance" maskUnits="userSpaceOnUse" x="0" y="-36" width="128" height="128">
<path d="M127.446 -35.7148H0V91.7319H127.446V-35.7148Z" fill="white"/>
</mask>
<g mask="url(#mask4_1989_431)">
<path d="M44.8855 34.4824C43.4962 33.686 42.4248 32.5538 41.6712 31.0895C40.9176 29.6253 40.5391 27.9038 40.5391 25.9324C40.5391 23.9431 40.9248 22.211 41.6962 20.7395C42.4676 19.2645 43.5462 18.1217 44.9355 17.3074C46.3248 16.4931 47.9426 16.0859 49.7962 16.0859C51.6462 16.0859 53.2641 16.4931 54.6426 17.3074C56.0212 18.1217 57.0926 19.2645 57.8569 20.7395C58.6212 22.2145 58.9998 23.9467 58.9998 25.9324C58.9998 27.9038 58.6212 29.6181 57.8676 31.0753C57.1141 32.5324 56.0462 33.6645 54.6676 34.4681C53.2891 35.2753 51.6641 35.6753 49.7962 35.6753C47.9105 35.6788 46.2748 35.2788 44.8855 34.4824ZM52.1748 30.3824C52.6462 29.5253 52.8819 28.0681 52.8819 26.011C52.8819 23.886 52.6426 22.361 52.1605 21.4324C51.6819 20.5074 50.8926 20.0431 49.7962 20.0431C48.6819 20.0431 47.8819 20.5074 47.3926 21.4324C46.9033 22.3574 46.6605 23.886 46.6605 26.011C46.6605 28.0681 46.8962 29.5253 47.3676 30.3824C47.8391 31.2395 48.6498 31.6681 49.7962 31.6681C50.9105 31.6681 51.7033 31.2395 52.1748 30.3824Z" fill="#171044"/>
</g>
<mask id="mask5_1989_431" style="mask-type:luminance" maskUnits="userSpaceOnUse" x="0" y="-36" width="128" height="128">
<path d="M127.446 -35.7148H0V91.7319H127.446V-35.7148Z" fill="white"/>
</mask>
<g mask="url(#mask5_1989_431)">
<path d="M60.4926 35.1506C60.4069 34.972 60.414 34.7435 60.5176 34.4685L66.739 16.9327C66.8247 16.7256 66.9176 16.5756 67.0212 16.4827C67.1247 16.3898 67.2854 16.3398 67.5104 16.3398H72.5783C73.0247 16.3398 73.3319 16.572 73.5033 17.0327L79.6747 34.5435C79.7426 34.7149 79.7462 34.9042 79.689 35.1077C79.6319 35.3113 79.5033 35.4149 79.3176 35.4149H74.2783C73.9854 35.4149 73.7962 35.2685 73.714 34.9792L72.7104 32.022C72.6747 31.9363 72.639 31.8649 72.5962 31.8042C72.5533 31.7434 72.464 31.7149 72.3247 31.7149H66.8747C66.6676 31.7149 66.539 31.8077 66.489 31.997L65.4354 35.0327C65.3997 35.1363 65.3354 35.2256 65.2426 35.3042C65.1497 35.3827 65.0069 35.4185 64.8176 35.4185H60.9104C60.7176 35.422 60.5783 35.3327 60.4926 35.1506ZM71.0354 27.347C71.2926 27.347 71.3712 27.1756 71.2676 26.8327L69.7247 22.4363C69.689 22.3506 69.639 22.3077 69.5712 22.3077C69.5033 22.3077 69.4497 22.3506 69.4176 22.4363L67.8497 26.8077C67.714 27.1684 67.7997 27.347 68.1069 27.347H71.0354Z" fill="#171044"/>
</g>
<mask id="mask6_1989_431" style="mask-type:luminance" maskUnits="userSpaceOnUse" x="0" y="-36" width="128" height="128">
<path d="M127.446 -35.7148H0V91.7319H127.446V-35.7148Z" fill="white"/>
</mask>
<g mask="url(#mask6_1989_431)">
<path d="M79.2646 16.9327C79.2646 16.7613 79.3146 16.6184 79.4182 16.5077C79.5218 16.397 79.6825 16.3398 79.9075 16.3398H95.2825C95.5039 16.3398 95.6682 16.397 95.7718 16.5077C95.8754 16.6184 95.9254 16.7613 95.9254 16.9327V19.9934C95.9254 20.3184 95.7361 20.4827 95.3611 20.4827H90.8111C90.6039 20.4827 90.5039 20.5684 90.5039 20.7399V34.8577C90.5039 35.2363 90.3396 35.422 90.0146 35.422H85.1289C84.8218 35.422 84.6646 35.2506 84.6646 34.9077V20.8434C84.6646 20.6041 84.5718 20.4827 84.3825 20.4827H79.8575C79.4646 20.4827 79.2682 20.3184 79.2682 19.9934V16.9327H79.2646Z" fill="#171044"/>
</g>
<mask id="mask7_1989_431" style="mask-type:luminance" maskUnits="userSpaceOnUse" x="0" y="-36" width="128" height="128">
<path d="M127.446 -35.7148H0V91.7319H127.446V-35.7148Z" fill="white"/>
</mask>
<g mask="url(#mask7_1989_431)">
<path d="M108.711 20.507C108.246 20.2142 107.511 20.0713 106.5 20.0713C105.539 20.0713 104.864 20.2106 104.468 20.482C104.071 20.757 103.875 21.057 103.875 21.382C103.875 21.5356 103.921 21.6963 104.018 21.857C104.111 22.0213 104.279 22.1749 104.518 22.3213C104.757 22.4678 105.093 22.5928 105.521 22.6928L109.789 23.7999C111.4 24.1928 112.589 24.8963 113.35 25.9071C114.114 26.9178 114.493 28.0856 114.493 29.4035C114.493 30.6713 114.157 31.7785 113.489 32.7214C112.821 33.6642 111.871 34.3928 110.646 34.9071C109.421 35.4214 107.961 35.6785 106.261 35.6785C105.011 35.6785 103.821 35.5356 102.7 35.2535C101.579 34.9714 100.596 34.5714 99.7572 34.0571C98.9179 33.5428 98.2929 32.9499 97.8786 32.2821C97.775 32.0928 97.7322 31.9392 97.75 31.8178C97.7679 31.6963 97.8607 31.5678 98.0322 31.4321L100.682 29.6071C100.921 29.4535 101.118 29.3892 101.271 29.4142C101.425 29.4392 101.554 29.5213 101.657 29.6571C102.036 30.1356 102.411 30.5321 102.789 30.8392C103.168 31.1464 103.6 31.3714 104.089 31.5071C104.579 31.6428 105.157 31.7142 105.825 31.7142C106.768 31.7142 107.521 31.5856 108.089 31.3285C108.654 31.0713 108.939 30.7035 108.939 30.2213C108.939 30.0142 108.879 29.8213 108.761 29.6428C108.639 29.4642 108.464 29.3035 108.232 29.1678C108 29.0321 107.696 28.9178 107.318 28.8321L103.411 27.8821C102.382 27.6249 101.489 27.2178 100.736 26.6606C99.9822 26.1035 99.4 25.4392 98.9857 24.6678C98.575 23.8963 98.3679 23.0642 98.3679 22.1749C98.3679 21.0606 98.6893 20.0392 99.3322 19.1142C99.975 18.1892 100.893 17.4499 102.082 16.9035C103.275 16.3535 104.675 16.082 106.286 16.082C107.314 16.082 108.296 16.1963 109.229 16.4285C110.164 16.6606 111 16.982 111.736 17.3927C112.471 17.8035 113.039 18.2928 113.432 18.857C113.518 18.9785 113.582 19.0999 113.625 19.2285C113.668 19.357 113.604 19.4892 113.432 19.6285L110.629 21.6606C110.507 21.7463 110.396 21.7749 110.296 21.7499C110.193 21.7249 110.046 21.6249 109.861 21.4535C109.557 21.1142 109.171 20.7999 108.711 20.507Z" fill="#171044"/>
</g>
<mask id="mask8_1989_431" style="mask-type:luminance" maskUnits="userSpaceOnUse" x="0" y="-36" width="128" height="128">
<path d="M127.446 -35.7148H0V91.7319H127.446V-35.7148Z" fill="white"/>
</mask>
<g mask="url(#mask8_1989_431)">
<path d="M120.807 30.9497C120.16 31.3854 119.528 31.8462 118.864 32.2569C114.667 34.8497 110.021 36.2676 105.182 37.1854C96.8923 38.7569 88.5102 38.9176 80.1173 38.6926C74.1316 38.5319 68.1495 38.214 62.1709 37.8926C54.9638 37.5069 47.7638 36.9462 40.5495 36.6355C31.3924 36.239 22.2245 36.0962 13.1102 37.4176C11.8959 37.5926 10.6959 37.8462 9.43164 37.9426C9.81735 37.7676 10.1924 37.5783 10.5852 37.4247C17.9531 34.5176 25.6674 33.264 33.5602 32.8712C41.5673 32.4712 49.5495 32.9533 57.5316 33.4783C67.2995 34.1247 77.0638 34.914 86.8459 35.189C98.1638 35.5069 109.374 34.4462 120.189 30.8283C120.346 30.7747 120.524 30.7854 120.696 30.7676C120.732 30.8247 120.771 30.889 120.807 30.9497Z" fill="#FBAA19"/>
</g>
</g>
<defs>
<clipPath id="clip0_1989_431">
<rect width="127.619" height="48.5715" fill="white"/>
</clipPath>
</defs>
</svg>
