<svg width="14" height="10" viewBox="0 0 14 10" fill="none" xmlns="http://www.w3.org/2000/svg">
<path fill-rule="evenodd" clip-rule="evenodd" d="M7 7.57143C5.59427 7.57143 4.45455 6.42071 4.45455 5C4.45455 3.57929 5.59427 2.42857 7 2.42857C8.40573 2.42857 9.54545 3.57929 9.54545 5C9.54545 6.42071 8.40573 7.57143 7 7.57143ZM7 0.5C2.95782 0.5 0 5 0 5C0 5 2.95782 9.5 7 9.5C11.0422 9.5 14 5 14 5C14 5 11.0422 0.5 7 0.5ZM7 3.71429C6.29745 3.71429 5.72727 4.28964 5.72727 5C5.72727 5.71036 6.29745 6.28571 7 6.28571C7.70255 6.28571 8.27273 5.71036 8.27273 5C8.27273 4.28964 7.70255 3.71429 7 3.71429Z" fill="#9B9B9B"/>
</svg>
